<?xml version="1.0" encoding="utf-8"?>
<!-- Generator: Adobe Illustrator 16.1.0, SVG Export Plug-In . SVG Version: 6.00 Build 0)  -->
<!DOCTYPE svg PUBLIC "-//W3C//DTD SVG 1.1//EN" "http://www.w3.org/Graphics/SVG/1.1/DTD/svg11.dtd">
<svg version="1.1" id="Layer_1" xmlns="http://www.w3.org/2000/svg" xmlns:xlink="http://www.w3.org/1999/xlink" x="0px" y="0px"
	 width="48px" height="48px" viewBox="0 0 48 48" enable-background="new 0 0 48 48" xml:space="preserve">
<g>
	<path fill="#FFFFFF" d="M25,8H13v32h22V17c0-4.123-8-1-8-1C28,12,27,8,25,8z"/>
	<path fill="#333333" d="M28,6H13h-2v2v32v2h2h22h2v-2V16v-2L28,6z M35,40H13V8h12c2,0,3,4,2,8c0,0,8-3.123,8,1V40z"/>
</g>
<g>
	<path fill="#666666" d="M21.666,31.423c-0.34-0.045-0.658-0.155-0.946-0.323l-0.613,1.938c0.339,0.051,0.655,0.166,0.942,0.338
		L21.666,31.423z"/>
	<path fill="#666666" d="M22.262,35.887l3.84-1.179c-0.082-0.192-0.148-0.393-0.182-0.608c-0.02-0.127-0.019-0.251-0.02-0.375
		l-3.715,1.141c0.029,0.102,0.062,0.201,0.079,0.309C22.302,35.417,22.292,35.654,22.262,35.887z"/>
	<path fill="#666666" d="M21.588,39.455c0.213-0.258,0.475-0.473,0.775-0.633l-1.062-1.254c-0.269,0.211-0.58,0.365-0.926,0.455
		L21.588,39.455z"/>
	<path fill="#666666" d="M17.361,36.507l-3.87,2.307c0.269,0.208,0.493,0.469,0.662,0.771l3.755-2.238
		c-0.018-0.019-0.04-0.033-0.058-0.052C17.643,37.068,17.479,36.801,17.361,36.507z"/>
	<path fill="#666666" d="M14.732,32.842l2.578,1.926c0.106-0.325,0.275-0.621,0.497-0.877l-2.377-1.774
		C15.248,32.401,15.013,32.647,14.732,32.842z"/>
	<path fill="#666666" d="M19.984,24.464c-0.243,0.227-0.53,0.407-0.852,0.526l1.123,2.032c0.243-0.226,0.53-0.407,0.853-0.526
		L19.984,24.464z"/>
	<path fill="#666666" d="M24.822,23.114c-0.336-0.058-0.651-0.181-0.934-0.36l-1.246,3.665c0.331,0.086,0.637,0.239,0.905,0.443
		L24.822,23.114z"/>
	<path fill="#666666" d="M27.79,27.517c-0.179-0.276-0.306-0.592-0.367-0.936l-3.277,0.928c0.179,0.277,0.306,0.593,0.366,0.937
		L27.79,27.517z"/>
	<g>
		<path fill="#333333" d="M19.469,29.282c0.121,0.796,0.604,1.441,1.251,1.817c0.288,0.168,0.606,0.278,0.946,0.323
			c0.234,0.03,0.473,0.041,0.718,0.004c1.398-0.211,2.359-1.518,2.146-2.915c-0.004-0.023-0.013-0.044-0.018-0.066
			c-0.061-0.344-0.188-0.659-0.366-0.937c-0.162-0.25-0.364-0.469-0.598-0.646c-0.269-0.204-0.574-0.357-0.905-0.443
			c-0.326-0.085-0.675-0.107-1.029-0.054c-0.176,0.027-0.345,0.071-0.505,0.131c-0.322,0.119-0.609,0.301-0.853,0.526
			C19.658,27.58,19.336,28.413,19.469,29.282z"/>
		<path fill="#333333" d="M22.262,35.887c0.03-0.232,0.04-0.47,0.003-0.713c-0.017-0.107-0.05-0.207-0.079-0.309
			c-0.064-0.23-0.148-0.45-0.27-0.646c-0.087-0.142-0.188-0.273-0.299-0.395c-0.165-0.179-0.361-0.323-0.568-0.448
			c-0.287-0.172-0.604-0.287-0.942-0.338c-0.247-0.036-0.499-0.049-0.759-0.01c-0.626,0.096-1.156,0.418-1.54,0.862
			c-0.222,0.256-0.391,0.552-0.497,0.877c-0.018,0.055-0.045,0.105-0.059,0.162c-0.082,0.322-0.102,0.666-0.049,1.016
			c0.03,0.197,0.087,0.384,0.158,0.562c0.117,0.294,0.281,0.562,0.489,0.787c0.018,0.019,0.04,0.033,0.058,0.052
			c0.441,0.45,1.04,0.738,1.693,0.771c0.17,0.009,0.343,0,0.518-0.026c0.09-0.014,0.172-0.044,0.257-0.066
			c0.346-0.09,0.657-0.244,0.926-0.455C21.826,37.159,22.175,36.56,22.262,35.887z"/>
		<path fill="#333333" d="M23.173,38.544c-0.294,0.045-0.562,0.147-0.81,0.278c-0.301,0.16-0.562,0.375-0.775,0.633
			c-0.136,0.166-0.243,0.352-0.336,0.545h0.797h1.312h2.508C25.4,38.995,24.322,38.369,23.173,38.544z"/>
		<path fill="#333333" d="M28.064,31.183c-1.271,0.194-2.17,1.293-2.164,2.542c0.001,0.124,0,0.248,0.02,0.375
			c0.033,0.216,0.1,0.416,0.182,0.608c0.445,1.051,1.553,1.716,2.733,1.535c1.397-0.211,2.358-1.518,2.146-2.914
			C30.77,31.931,29.463,30.969,28.064,31.183z"/>
		<path fill="#333333" d="M13,28.207v2.095v1.247v1.728c0.219,0.024,0.44,0.031,0.668-0.003c0.397-0.061,0.754-0.217,1.064-0.432
			c0.28-0.194,0.516-0.44,0.698-0.726c0.323-0.505,0.48-1.119,0.383-1.758C15.607,28.994,14.357,28.055,13,28.207z"/>
		<path fill="#333333" d="M13.491,38.813c-0.151-0.117-0.317-0.212-0.491-0.293v0.586v0.655V40h0.142h0.313h0.889
			c-0.052-0.146-0.116-0.284-0.19-0.416C13.984,39.282,13.76,39.021,13.491,38.813z"/>
		<path fill="#333333" d="M32.466,25.745c-0.212-1.397-1.519-2.359-2.915-2.146c-1.398,0.215-2.357,1.519-2.145,2.918
			c0.004,0.022,0.013,0.042,0.017,0.064c0.062,0.344,0.188,0.659,0.367,0.936c0.53,0.818,1.503,1.3,2.53,1.144
			C31.719,28.449,32.68,27.142,32.466,25.745z"/>
		<path fill="#333333" d="M23.889,22.754c0.282,0.18,0.598,0.303,0.934,0.36c0.265,0.046,0.538,0.062,0.818,0.02
			c1.398-0.211,2.359-1.518,2.146-2.915c-0.212-1.397-1.519-2.359-2.915-2.146c-1.398,0.213-2.357,1.518-2.146,2.917
			C22.842,21.749,23.287,22.371,23.889,22.754z"/>
		<path fill="#333333" d="M18.625,25.121c0.177-0.026,0.346-0.071,0.508-0.131c0.321-0.119,0.608-0.3,0.852-0.526
			c0.598-0.558,0.92-1.391,0.787-2.258c-0.213-1.398-1.519-2.359-2.916-2.146c-1.398,0.214-2.358,1.519-2.146,2.917
			C15.924,24.372,17.227,25.334,18.625,25.121z"/>
	</g>
</g>
</svg>
