<?xml version="1.0" encoding="utf-8"?>
<!-- Generator: Adobe Illustrator 16.1.0, SVG Export Plug-In . SVG Version: 6.00 Build 0)  -->
<!DOCTYPE svg PUBLIC "-//W3C//DTD SVG 1.1//EN" "http://www.w3.org/Graphics/SVG/1.1/DTD/svg11.dtd">
<svg version="1.1" id="Layer_1" xmlns="http://www.w3.org/2000/svg" xmlns:xlink="http://www.w3.org/1999/xlink" x="0px" y="0px"
	 width="48px" height="48px" viewBox="0 0 48 48" enable-background="new 0 0 48 48" xml:space="preserve">
<g>
	<path fill="#666666" d="M21.764,15.676c-0.302,0.144-0.628,0.228-0.97,0.244l0.453,1.997c0.3-0.147,0.625-0.236,0.967-0.258
		L21.764,15.676z"/>
	<path fill="#666666" d="M19.886,19.609c0.025-0.106,0.068-0.203,0.105-0.303l-3.609-1.443c-0.011,0.124-0.02,0.248-0.05,0.373
		c-0.051,0.212-0.134,0.406-0.23,0.591l3.729,1.491C19.819,20.085,19.829,19.848,19.886,19.609z"/>
	<path fill="#666666" d="M19.487,23.237c0.286,0.184,0.529,0.419,0.719,0.694l1.327-1.327c-0.337-0.118-0.634-0.298-0.885-0.529
		L19.487,23.237z"/>
	<path fill="#666666" d="M24.048,22.132l3.557,2.542c0.194-0.286,0.439-0.528,0.725-0.713l-3.667-2.619
		C24.509,21.648,24.3,21.915,24.048,22.132z"/>
	<path fill="#666666" d="M22.562,11.651l1.288-1.934c-0.311-0.146-0.582-0.35-0.806-0.595l-1.288,1.934
		C22.067,11.202,22.339,11.406,22.562,11.651z"/>
	<path fill="#666666" d="M19.296,7.097c-0.296,0.155-0.62,0.252-0.96,0.282l0.96,3.84c0.284-0.181,0.602-0.309,0.938-0.366
		L19.296,7.097z"/>
	<path fill="#666666" d="M15.456,10.619c-0.09,0.337-0.241,0.641-0.442,0.901l3.188,1.195c0.09-0.337,0.242-0.64,0.443-0.901
		L15.456,10.619z"/>
	<path fill="#666666" d="M15.568,25.174l-3.55,0.583c0.104,0.314,0.145,0.65,0.117,0.994l3.547-0.583
		C15.579,25.854,15.54,25.518,15.568,25.174z"/>
	<path fill="#666666" d="M16.685,27.5l-1.666,2.845c0.013,0.003,0.025,0.002,0.037,0.005c0.328,0.078,0.624,0.22,0.883,0.404
		l1.68-2.868c-0.033-0.007-0.066-0.006-0.101-0.014C17.21,27.799,16.933,27.667,16.685,27.5z"/>
	<path fill="#666666" d="M7.569,24.988l-1.57-0.296v1.018l1.117,0.21C7.204,25.57,7.362,25.258,7.569,24.988z"/>
	<path fill="#666666" d="M12.364,34.289l-1.546,1.76c0.287,0.185,0.53,0.42,0.72,0.695l1.546-1.759
		C12.797,34.801,12.554,34.564,12.364,34.289z"/>
	<path fill="#666666" d="M14.981,39.174c0.311-0.115,0.646-0.17,0.989-0.155l-0.435-3.867c-0.305,0.142-0.636,0.224-0.98,0.236
		L14.981,39.174z"/>
	<path fill="#666666" d="M19.267,36.265c0.132-0.319,0.322-0.601,0.559-0.834l-3.007-1.611c-0.132,0.319-0.323,0.601-0.56,0.834
		L19.267,36.265z"/>
	<path fill="#666666" d="M28.737,35.583L28,39.088c0.217-0.005,0.437,0.007,0.657,0.06c0.115,0.027,0.221,0.072,0.328,0.114
		l0.689-3.275c-0.023-0.005-0.047-0.004-0.07-0.01C29.282,35.9,28.993,35.762,28.737,35.583z"/>
	<path fill="#666666" d="M31.327,35.771l1.576,1.659c0.22-0.261,0.486-0.472,0.786-0.626l-1.565-1.647
		C31.899,35.413,31.63,35.62,31.327,35.771z"/>
	<path fill="#666666" d="M29.321,28.62l0.243,2.397c0.32-0.082,0.657-0.102,1.001-0.052l-0.242-2.386
		C30.002,28.659,29.665,28.675,29.321,28.62z"/>
	<path fill="#666666" d="M34.725,30.121c0.135-0.316,0.327-0.596,0.565-0.826l-3.17-2.344c-0.115,0.328-0.29,0.618-0.514,0.864
		L34.725,30.121z"/>
	<path fill="#666666" d="M35.499,24.965c-0.138-0.305-0.216-0.635-0.226-0.979l-3.216,1.102c0.134,0.308,0.207,0.64,0.212,0.984
		L35.499,24.965z"/>
	<path fill="#999999" d="M22.562,11.651c-0.223-0.245-0.494-0.449-0.806-0.595c-0.155-0.073-0.319-0.132-0.493-0.173
		c-0.348-0.083-0.696-0.089-1.028-0.031c-0.337,0.058-0.654,0.186-0.938,0.366c-0.248,0.158-0.468,0.36-0.65,0.596
		c-0.201,0.262-0.354,0.564-0.443,0.901c-0.006,0.023-0.018,0.043-0.022,0.066c-0.328,1.374,0.521,2.756,1.897,3.082
		c0.241,0.058,0.48,0.067,0.717,0.056c0.342-0.017,0.668-0.101,0.97-0.244c0.675-0.321,1.209-0.924,1.396-1.707
		C23.363,13.113,23.111,12.257,22.562,11.651z"/>
	<path fill="#333333" d="M21.533,22.604c0.083,0.029,0.163,0.066,0.251,0.087C21.696,22.671,21.616,22.634,21.533,22.604
		L21.533,22.604z"/>
	<path fill="#333333" d="M22.456,17.643c-0.082-0.002-0.161,0.012-0.242,0.017l0,0C22.295,17.654,22.374,17.641,22.456,17.643z"/>
	<path fill="#333333" d="M19.83,20.318L19.83,20.318c0.03,0.678,0.329,1.305,0.818,1.757l0.001-0.001
		C20.16,21.623,19.862,20.996,19.83,20.318z"/>
	<path fill="#333333" d="M21.247,17.918L21.247,17.918c-0.567,0.28-1.022,0.766-1.256,1.389l0,0
		C20.225,18.684,20.68,18.198,21.247,17.918z"/>
	<path fill="#333333" d="M22.214,17.659L22.214,17.659c-0.342,0.021-0.667,0.11-0.967,0.258v0.001
		C21.546,17.77,21.872,17.681,22.214,17.659z"/>
	<path fill="#333333" d="M19.886,19.609c-0.057,0.238-0.066,0.476-0.056,0.709l0,0C19.819,20.085,19.829,19.848,19.886,19.609z"/>
	<path fill="#333333" d="M19.991,19.307L19.991,19.307c-0.037,0.1-0.08,0.196-0.105,0.303
		C19.911,19.503,19.954,19.406,19.991,19.307z"/>
	<path fill="#333333" d="M20.649,22.074L20.649,22.074c0.25,0.232,0.547,0.412,0.884,0.53l0,0
		C21.196,22.486,20.899,22.306,20.649,22.074z"/>
	<path fill="#333333" d="M24.856,19.613c-0.078-0.332-0.223-0.641-0.422-0.914c-0.347-0.475-0.849-0.84-1.465-0.987
		c-0.172-0.041-0.344-0.063-0.514-0.069c-0.082-0.002-0.161,0.012-0.242,0.017c-0.342,0.021-0.668,0.11-0.967,0.259
		c-0.567,0.28-1.022,0.766-1.256,1.389c-0.037,0.1-0.08,0.196-0.105,0.303c-0.057,0.238-0.066,0.476-0.056,0.709
		c0.032,0.678,0.33,1.305,0.819,1.756c0.25,0.231,0.547,0.412,0.884,0.53c0.083,0.029,0.163,0.066,0.251,0.087
		c0.832,0.198,1.662-0.04,2.264-0.56c0.252-0.217,0.461-0.483,0.614-0.79c0.086-0.172,0.157-0.352,0.204-0.546
		C24.962,20.393,24.947,19.991,24.856,19.613z"/>
	<path fill="#333333" d="M20.206,23.932c-0.189-0.275-0.433-0.511-0.719-0.694c-0.237-0.152-0.496-0.276-0.785-0.346
		c-1.375-0.327-2.756,0.522-3.082,1.899c-0.031,0.128-0.041,0.256-0.052,0.383c-0.028,0.344,0.011,0.68,0.114,0.994
		c0.175,0.541,0.524,1.011,1.002,1.332c0.248,0.167,0.525,0.299,0.833,0.372c0.034,0.008,0.067,0.007,0.101,0.014
		c1.34,0.263,2.661-0.57,2.98-1.909C20.774,25.24,20.604,24.508,20.206,23.932z"/>
	<path fill="#999999" d="M14.437,15.151c-1.376-0.328-2.758,0.522-3.084,1.898c-0.328,1.373,0.521,2.755,1.897,3.081
		c1.163,0.277,2.321-0.293,2.852-1.304c0.097-0.185,0.18-0.379,0.23-0.591c0.03-0.125,0.039-0.249,0.05-0.373
		C16.491,16.618,15.687,15.45,14.437,15.151z"/>
	<path fill="#666666" d="M40.442,6c-0.409,0.342-0.721,0.807-0.854,1.364c-0.207,0.866,0.056,1.734,0.623,2.341l-1.692,2.947
		c-0.145-0.064-0.296-0.12-0.456-0.158c-1.375-0.327-2.757,0.522-3.084,1.898c-0.004,0.017-0.003,0.033-0.007,0.05l-3.452,0.432
		c-0.316-0.69-0.927-1.239-1.724-1.43c-1.376-0.328-2.757,0.522-3.083,1.898c-0.15,0.628-0.045,1.254,0.236,1.784l-2.516,1.572
		c0.199,0.273,0.344,0.582,0.422,0.914l2.73-1.705c0.291,0.238,0.633,0.424,1.023,0.517c1.376,0.327,2.756-0.522,3.083-1.896
		c0.054-0.228,0.065-0.453,0.058-0.676l3.205-0.401c0.18,0.964,0.905,1.781,1.922,2.022c0.709,0.169,1.416,0.021,1.983-0.348
		l1.708,1.592c-0.173,0.252-0.309,0.535-0.383,0.85c-0.322,1.344,0.49,2.69,1.814,3.054v-2.605v-1.331v-0.982
		c-0.254,0.07-0.497,0.172-0.717,0.314l-1.707-1.592c0.172-0.251,0.307-0.533,0.382-0.847c0.05-0.207,0.063-0.412,0.062-0.615
		l1.979-0.164v-1.003l-2.188,0.181c-0.117-0.271-0.273-0.524-0.477-0.741l1.693-2.948c0.145,0.064,0.297,0.12,0.457,0.158
		c0.172,0.041,0.344,0.063,0.514,0.069V8.595v-0.05V6H40.442z"/>
	<path fill="#CCCCCC" d="M38.416,21.424c-1.376-0.327-2.757,0.522-3.083,1.898c-0.054,0.223-0.065,0.444-0.06,0.664
		c0.01,0.344,0.088,0.674,0.226,0.979c0.316,0.696,0.93,1.249,1.73,1.439c1.375,0.327,2.756-0.522,3.082-1.896
		C40.64,23.133,39.791,21.753,38.416,21.424z"/>
	<path fill="#CCCCCC" d="M32.058,25.088c-0.311-0.712-0.932-1.279-1.746-1.474c-0.709-0.169-1.416-0.021-1.982,0.347
		c-0.285,0.185-0.53,0.427-0.725,0.713c-0.168,0.249-0.303,0.528-0.376,0.839c-0.328,1.373,0.521,2.755,1.897,3.081
		c0.065,0.016,0.13,0.016,0.195,0.026c0.344,0.055,0.681,0.039,1.002-0.04c0.496-0.121,0.94-0.388,1.283-0.765
		c0.224-0.246,0.398-0.536,0.514-0.864c0.029-0.084,0.066-0.163,0.088-0.252c0.051-0.211,0.064-0.42,0.062-0.627
		C32.265,25.728,32.191,25.396,32.058,25.088z"/>
	<path fill="#CCCCCC" d="M37.665,28.633c-0.885-0.211-1.769,0.07-2.375,0.662c-0.238,0.23-0.431,0.51-0.565,0.826
		c-0.056,0.132-0.107,0.266-0.142,0.409c-0.329,1.374,0.521,2.755,1.897,3.082c1.374,0.328,2.754-0.522,3.081-1.895
		C39.89,30.341,39.041,28.96,37.665,28.633z"/>
	<path fill="#CCCCCC" d="M30.791,30.996c-0.075-0.018-0.151-0.02-0.226-0.03c-0.344-0.05-0.681-0.03-1.001,0.052
		c-0.89,0.229-1.63,0.921-1.856,1.877c-0.252,1.052,0.191,2.104,1.029,2.688c0.256,0.179,0.545,0.317,0.867,0.394
		c0.023,0.006,0.047,0.005,0.07,0.01c0.581,0.121,1.156,0.03,1.652-0.216c0.303-0.15,0.572-0.357,0.797-0.614
		c0.262-0.302,0.465-0.66,0.563-1.075C33.015,32.705,32.166,31.325,30.791,30.996z"/>
	<path fill="#CCCCCC" d="M35.446,36.581c-0.618-0.147-1.232-0.047-1.757,0.223c-0.3,0.154-0.566,0.365-0.786,0.626
		c-0.25,0.296-0.444,0.646-0.54,1.05c-0.329,1.373,0.521,2.756,1.897,3.081c1.375,0.328,2.754-0.521,3.082-1.895
		C37.671,38.289,36.821,36.91,35.446,36.581z"/>
	<path fill="#CCCCCC" d="M28.985,39.262c-0.107-0.042-0.213-0.087-0.328-0.114c-0.221-0.053-0.44-0.064-0.657-0.06
		c-1.134,0.029-2.153,0.803-2.427,1.959c-0.077,0.322-0.084,0.644-0.039,0.953h5.051C30.753,40.818,30.087,39.689,28.985,39.262z"/>
	<path fill="#333333" d="M22.216,34.752c-0.893-0.212-1.782,0.077-2.391,0.679c-0.236,0.233-0.427,0.515-0.559,0.834
		c-0.053,0.125-0.103,0.251-0.135,0.387c-0.328,1.373,0.521,2.755,1.898,3.082c1.374,0.326,2.754-0.522,3.081-1.896
		C24.44,36.461,23.591,35.081,22.216,34.752z"/>
	<path fill="#333333" d="M16.461,39.084c-0.164-0.039-0.327-0.059-0.49-0.065c-0.343-0.015-0.679,0.04-0.989,0.155
		c-0.775,0.287-1.398,0.943-1.604,1.809c-0.082,0.345-0.091,0.689-0.034,1.018h5.036C18.603,40.681,17.779,39.398,16.461,39.084z"/>
	<path fill="#333333" d="M11.538,36.744c-0.189-0.275-0.433-0.511-0.72-0.695c-0.236-0.152-0.495-0.275-0.784-0.345
		c-1.375-0.327-2.756,0.522-3.083,1.898c-0.329,1.374,0.521,2.755,1.897,3.082c1.375,0.328,2.755-0.522,3.082-1.896
		C12.106,38.053,11.937,37.321,11.538,36.744z"/>
	<path fill="#333333" d="M15.938,30.754c-0.259-0.185-0.555-0.326-0.883-0.404c-0.012-0.003-0.024-0.002-0.037-0.005
		c-1.362-0.305-2.722,0.54-3.045,1.903c-0.176,0.733-0.008,1.465,0.391,2.041c0.189,0.275,0.433,0.512,0.72,0.696
		c0.237,0.152,0.497,0.276,0.786,0.345c0.23,0.055,0.459,0.065,0.686,0.058c0.345-0.013,0.676-0.095,0.98-0.236
		c0.268-0.124,0.512-0.29,0.723-0.498c0.236-0.233,0.428-0.515,0.56-0.834c0.052-0.124,0.102-0.25,0.134-0.385
		C17.202,32.387,16.767,31.34,15.938,30.754z"/>
	<path fill="#333333" d="M12.019,25.757c-0.268-0.818-0.933-1.484-1.832-1.699c-1.011-0.241-2.021,0.158-2.617,0.931
		c-0.207,0.27-0.365,0.582-0.453,0.932c-0.004,0.013-0.01,0.023-0.013,0.036c-0.328,1.373,0.521,2.756,1.897,3.081
		c1.375,0.328,2.755-0.521,3.082-1.895c0.031-0.131,0.042-0.262,0.053-0.392C12.163,26.407,12.122,26.071,12.019,25.757z"/>
	<path fill="#999999" d="M13.583,7.471c-1.376-0.328-2.758,0.522-3.084,1.898c-0.328,1.373,0.521,2.756,1.897,3.081
		c1.011,0.241,2.021-0.157,2.617-0.93c0.201-0.261,0.353-0.564,0.442-0.901c0.006-0.021,0.018-0.041,0.022-0.063
		C15.807,9.179,14.958,7.8,13.583,7.471z"/>
	<path fill="#999999" d="M19.021,6h-0.005h-3.176c0.328,0.644,0.918,1.15,1.677,1.33c0.276,0.066,0.55,0.072,0.818,0.049
		c0.34-0.03,0.664-0.127,0.96-0.282C19.756,6.854,20.14,6.479,20.384,6H19.021z"/>
	<path fill="#999999" d="M27.071,6h-4.266c-0.16,0.242-0.289,0.51-0.359,0.809c-0.203,0.854,0.049,1.709,0.598,2.314
		c0.224,0.245,0.495,0.449,0.806,0.595c0.155,0.073,0.321,0.132,0.495,0.173c1.375,0.328,2.754-0.522,3.082-1.896
		C27.597,7.281,27.445,6.568,27.071,6z"/>
</g>
</svg>
