<?xml version="1.0" encoding="utf-8"?>
<!-- Generator: Adobe Illustrator 16.1.0, SVG Export Plug-In . SVG Version: 6.00 Build 0)  -->
<!DOCTYPE svg PUBLIC "-//W3C//DTD SVG 1.1//EN" "http://www.w3.org/Graphics/SVG/1.1/DTD/svg11.dtd">
<svg version="1.1" id="Layer_1" xmlns="http://www.w3.org/2000/svg" xmlns:xlink="http://www.w3.org/1999/xlink" x="0px" y="0px"
	 width="48px" height="48px" viewBox="0 0 48 48" enable-background="new 0 0 48 48" xml:space="preserve">
<g>
	<g>
		<path fill="#666666" d="M30.284,28.092l2.942-1.009c0.291,0.61,0.837,1.093,1.546,1.26c1.244,0.297,2.494-0.473,2.791-1.715
			c0.297-1.247-0.473-2.496-1.717-2.795c-1.246-0.296-2.496,0.474-2.793,1.719c-0.044,0.186-0.058,0.371-0.057,0.554l-2.929,1.004
			c-0.287-0.625-0.84-1.12-1.56-1.293c-0.625-0.148-1.251-0.029-1.757,0.285l-3.335-2.383c0.067-0.143,0.122-0.294,0.16-0.453
			c0.297-1.246-0.472-2.496-1.717-2.793c-0.214-0.051-0.427-0.061-0.636-0.051l-0.412-1.814c0.59-0.297,1.055-0.833,1.22-1.524
			c0.18-0.758-0.037-1.514-0.513-2.059l1.184-1.773c0.127,0.057,0.26,0.106,0.401,0.14c1.246,0.297,2.494-0.474,2.791-1.716
			c0.297-1.246-0.472-2.496-1.717-2.794c-1.246-0.295-2.496,0.474-2.792,1.719c-0.18,0.756,0.037,1.511,0.511,2.056l-1.183,1.774
			c-0.127-0.057-0.26-0.106-0.399-0.14c-0.3-0.071-0.599-0.077-0.885-0.034l-0.854-3.416c0.551-0.305,0.98-0.824,1.138-1.483
			c0.297-1.247-0.473-2.496-1.717-2.793c-1.246-0.297-2.497,0.473-2.793,1.718c-0.297,1.245,0.473,2.495,1.719,2.791
			c0.233,0.056,0.466,0.062,0.692,0.047l0.877,3.505c-0.193,0.13-0.365,0.288-0.514,0.471l-2.905-1.09
			c0.001-0.004,0.003-0.008,0.004-0.012c0.297-1.247-0.471-2.496-1.717-2.794c-1.246-0.297-2.496,0.475-2.793,1.719
			s0.473,2.496,1.719,2.79c0.898,0.214,1.793-0.132,2.337-0.805l2.904,1.09c-0.001,0.005-0.004,0.01-0.005,0.016
			c-0.297,1.244,0.473,2.495,1.719,2.792c0.202,0.048,0.403,0.059,0.601,0.053l0.416,1.826c-0.482,0.251-0.869,0.664-1.079,1.192
			l-3.277-1.311c0.073-1.108-0.651-2.141-1.768-2.407c-1.246-0.297-2.497,0.473-2.793,1.719c-0.297,1.243,0.473,2.494,1.719,2.79
			c1.035,0.247,2.066-0.251,2.557-1.139l3.405,1.361c0.039,0.577,0.292,1.111,0.702,1.506l-1.06,1.059
			c-0.203-0.124-0.422-0.229-0.667-0.287c-1.246-0.297-2.497,0.473-2.793,1.72c-0.024,0.1-0.03,0.199-0.04,0.298l-3.231,0.53
			c-0.252-0.72-0.85-1.301-1.646-1.492c-0.896-0.215-1.79,0.13-2.334,0.802l-1.953-0.368v1.018l1.492,0.281
			c-0.288,1.238,0.479,2.482,1.721,2.776c1.244,0.297,2.494-0.473,2.791-1.716c0.024-0.103,0.03-0.204,0.041-0.306l3.229-0.53
			c0.158,0.456,0.455,0.854,0.855,1.136l-1.519,2.593c-1.216-0.244-2.419,0.513-2.707,1.729c-0.155,0.647-0.017,1.295,0.324,1.811
			l-1.411,1.607c-0.204-0.125-0.424-0.229-0.669-0.287c-1.245-0.297-2.496,0.473-2.791,1.718c-0.299,1.245,0.471,2.495,1.717,2.792
			c1.246,0.296,2.496-0.475,2.791-1.718c0.155-0.649,0.015-1.297-0.325-1.813l1.41-1.605c0.205,0.125,0.426,0.229,0.671,0.288
			c0.193,0.046,0.386,0.058,0.575,0.055l0.387,3.444c-0.668,0.263-1.201,0.831-1.393,1.575h4.473
			c-0.209-0.803-0.832-1.47-1.695-1.676c-0.133-0.031-0.264-0.045-0.396-0.053l-0.396-3.53c0.21-0.104,0.407-0.231,0.577-0.393
			l2.738,1.468c-0.039,0.1-0.08,0.197-0.105,0.305c-0.297,1.243,0.474,2.495,1.718,2.792c1.246,0.295,2.495-0.474,2.791-1.717
			c0.298-1.247-0.471-2.497-1.717-2.795c-0.79-0.188-1.581,0.057-2.132,0.578l-2.738-1.469c0.038-0.099,0.079-0.195,0.104-0.302
			c0.222-0.933-0.153-1.866-0.877-2.402l1.532-2.615c1.195,0.207,2.361-0.54,2.647-1.736c0.155-0.65,0.015-1.297-0.327-1.812
			l1.223-1.223c0.06,0.02,0.115,0.047,0.177,0.062c0.735,0.176,1.469-0.028,2.01-0.477l3.237,2.312
			c-0.141,0.217-0.254,0.454-0.317,0.72c-0.297,1.242,0.473,2.493,1.719,2.79c0.043,0.01,0.085,0.01,0.128,0.018l0.223,2.188
			C27,32.754,26.352,33.371,26.15,34.22c-0.225,0.936,0.156,1.875,0.889,2.409l-0.674,3.203c-0.971,0.045-1.833,0.695-2.111,1.668
			h4.437c-0.192-0.666-0.673-1.225-1.339-1.498l0.626-2.977c0.493,0.093,0.979,0.021,1.405-0.18l1.439,1.516
			c-0.211,0.261-0.373,0.566-0.456,0.915c-0.201,0.838,0.091,1.674,0.679,2.224h3.161c0.319-0.299,0.559-0.69,0.668-1.147
			c0.297-1.248-0.472-2.497-1.717-2.795c-0.542-0.13-1.081-0.047-1.547,0.181l-1.431-1.506c0.222-0.266,0.394-0.579,0.479-0.938
			c0.297-1.247-0.473-2.496-1.717-2.794c-0.053-0.013-0.104-0.013-0.157-0.021l-0.221-2.179c0.415-0.111,0.789-0.333,1.084-0.645
			l2.84,2.1c-0.043,0.105-0.086,0.21-0.112,0.323c-0.299,1.243,0.471,2.494,1.717,2.789c1.245,0.298,2.494-0.472,2.791-1.714
			c0.297-1.247-0.472-2.497-1.717-2.795c-0.786-0.188-1.572,0.052-2.12,0.565l-2.885-2.134c0.02-0.061,0.047-0.118,0.062-0.182
			C30.266,28.437,30.282,28.264,30.284,28.092z"/>
	</g>
	<path fill="#333333" d="M27.427,14.178c-1.902,1.902-1.902,4.996,0,6.896c0.92,0.922,2.145,1.429,3.449,1.431
		c1.303-0.002,2.527-0.509,3.447-1.431c0.922-0.92,1.43-2.145,1.43-3.448s-0.508-2.528-1.43-3.45
		C32.423,12.275,29.329,12.277,27.427,14.178z M33.104,19.857c-0.594,0.595-1.385,0.921-2.229,0.921s-1.635-0.326-2.23-0.921v-0.002
		c-0.596-0.594-0.922-1.386-0.922-2.23c0-0.842,0.326-1.636,0.922-2.229c0.594-0.594,1.387-0.923,2.229-0.923
		c0.846,0,1.637,0.33,2.232,0.924C34.335,16.626,34.333,18.627,33.104,19.857z"/>
	<path fill="#333333" d="M40.458,6.5c-0.414,0-0.801,0.161-1.09,0.451l-5.129,5.13l0.551,0.366c0.248,0.164,0.48,0.353,0.695,0.568
		c0.217,0.216,0.408,0.451,0.57,0.695l0.363,0.553l5.129-5.128c0.604-0.603,0.604-1.581,0.002-2.185
		C41.259,6.661,40.87,6.5,40.458,6.5z"/>
</g>
</svg>
