<?xml version="1.0" encoding="utf-8"?>
<!-- Generator: Adobe Illustrator 16.1.0, SVG Export Plug-In . SVG Version: 6.00 Build 0)  -->
<!DOCTYPE svg PUBLIC "-//W3C//DTD SVG 1.1//EN" "http://www.w3.org/Graphics/SVG/1.1/DTD/svg11.dtd">
<svg version="1.1" id="Layer_1" xmlns="http://www.w3.org/2000/svg" xmlns:xlink="http://www.w3.org/1999/xlink" x="0px" y="0px"
	 width="48px" height="48px" viewBox="0 0 48 48" enable-background="new 0 0 48 48" xml:space="preserve">
<g>
	<path fill="none" d="M23.28,22.939l-0.888-0.106c0.137,0.236,0.27,0.474,0.393,0.713l0.5-0.282
		C23.282,23.159,23.282,23.046,23.28,22.939z"/>
	<path fill="none" d="M21.087,22.676l-0.657-0.079c0.008,0.425,0.011,0.876,0.011,1.377v0.893l1.437-0.81l-0.351-0.589
		C21.379,23.215,21.232,22.944,21.087,22.676z"/>
	<polygon fill="none" points="24.315,23.3 25.6,24.826 26.02,23.518 24.315,23.205 	"/>
	<path fill="none" d="M28.154,22.049c-0.12-0.377-0.221-0.801-0.313-1.16h-0.018c-0.092,0.359-0.185,0.792-0.295,1.16l-0.437,1.396
		l0.723,0.133h0.827L28.154,22.049z"/>
	<path fill="none" d="M23.275,22.671c0-0.06-0.002-0.116-0.003-0.177l-2.412-2.223l1.368,2.274L23.275,22.671z"/>
	<path fill="none" d="M20.551,19.986l-4.833-4.451c-0.106,0.064-0.225,0.111-0.358,0.111c-0.392,0-0.71-0.318-0.71-0.709
		c0-0.017,0.009-0.03,0.009-0.047L8.465,12.54c-0.037,0.044-0.08,0.077-0.127,0.109l0.969,4.091c0.33,0.054,0.587,0.327,0.587,0.672
		c0,0.164-0.065,0.31-0.161,0.43l2.1,2.972c0.099-0.066,0.21-0.114,0.337-0.114c0.337,0,0.611,0.275,0.611,0.611
		c0,0.035-0.015,0.064-0.021,0.098l1.693,0.203c0.033-0.981,0.868-1.726,2.185-1.726c0.672,0,1.17,0.147,1.492,0.312l-0.277,0.912
		c-0.221-0.12-0.654-0.294-1.233-0.294c-0.718,0-1.031,0.386-1.031,0.745c0,0.072,0.025,0.13,0.042,0.191l3.77,0.453v-2.22H20.551z"
		/>
	<path fill="none" d="M20.412,21.322l-0.028,0.009c0.019,0.324,0.03,0.655,0.039,0.998l0.506,0.061
		C20.74,22.029,20.562,21.668,20.412,21.322z"/>
	<path fill="none" d="M23.349,24.729h0.019c-0.034-0.389-0.057-0.771-0.072-1.166l-0.388,0.218
		C23.067,24.102,23.218,24.42,23.349,24.729z"/>
	<polygon fill="none" points="24.315,22.248 24.315,22.935 26.102,23.263 26.83,20.99 	"/>
	<path fill="none" d="M35.729,18.622l-2.906-0.075c-0.124,0.345-0.446,0.594-0.834,0.594c-0.298,0-0.548-0.153-0.71-0.375
		l-2.648,1.324l1.256,3.868l1.591,0.292v-4.181c0.405-0.072,0.967-0.129,1.73-0.129c0.829,0,1.437,0.176,1.832,0.507
		c0.369,0.304,0.607,0.792,0.607,1.372c0,0.589-0.184,1.076-0.533,1.408c-0.451,0.451-1.16,0.663-1.961,0.663
		c-0.212,0-0.404-0.009-0.553-0.037v0.603l2.365,0.435c0.204-0.365,0.574-0.618,1.017-0.639l0.685-4.448
		C36.133,19.664,35.73,19.2,35.729,18.622z"/>
	<path fill="none" d="M34.517,21.865c0-0.69-0.479-1.059-1.262-1.059c-0.313,0-0.535,0.027-0.654,0.055v2.099
		c0.139,0.038,0.322,0.047,0.553,0.047C34.001,23.007,34.517,22.592,34.517,21.865z"/>
	<path fill="#B2B2B2" d="M14.742,9.059c0.001,0.018,0.01,0.032,0.01,0.051c0,0.078-0.022,0.149-0.045,0.221l4.119,1.589
		c0.018-0.089,0.028-0.179,0.065-0.26L14.742,9.059z"/>
	<path fill="#B2B2B2" d="M19.255,12.044c-0.073-0.055-0.138-0.112-0.196-0.183l-3.189,2.586c0.062,0.064,0.111,0.139,0.146,0.222
		L19.255,12.044z"/>
	<path fill="#B2B2B2" d="M14.658,14.891c0.007-0.092,0.027-0.179,0.066-0.258l-6.141-2.331c-0.023,0.09-0.062,0.17-0.119,0.238
		L14.658,14.891z"/>
	<path fill="#B2B2B2" d="M9.307,16.74l-0.969-4.091c-0.074,0.051-0.157,0.084-0.25,0.098l0.949,4.005
		c0.053-0.014,0.104-0.033,0.162-0.033C9.237,16.719,9.271,16.734,9.307,16.74z"/>
	<path fill="#B2B2B2" d="M11.832,20.813l-2.1-2.972c-0.058,0.07-0.125,0.127-0.205,0.172l2.119,2.998
		C11.693,20.932,11.756,20.866,11.832,20.813z"/>
	<path fill="#B2B2B2" d="M7.01,22.416c0.073,0.064,0.132,0.143,0.168,0.235l4.523-0.962c-0.059-0.07-0.096-0.154-0.117-0.246
		L7.01,22.416z"/>
	<path fill="#B2B2B2" d="M14.715,27.954l-3.645-0.717c0,0.006,0.003,0.01,0.003,0.015c0,0.088-0.023,0.168-0.05,0.246l3.685,0.725
		c-0.005-0.04-0.023-0.074-0.023-0.115C14.685,28.053,14.708,28.007,14.715,27.954z"/>
	<path fill="#B2B2B2" d="M17.332,33.757c0.078-0.044,0.161-0.071,0.252-0.088l-1.441-4.466c-0.085,0.023-0.169,0.049-0.261,0.053
		L17.332,33.757z"/>
	<path fill="#B2B2B2" d="M23.445,31.669c0.093,0.002,0.182,0.022,0.264,0.054l0.162-5.531h-0.266L23.445,31.669z"/>
	<path fill="#B2B2B2" d="M16.422,27.13c0.084,0.051,0.173,0.098,0.242,0.168l2.735-1.541v-0.305L16.422,27.13z"/>
	<path fill="#B2B2B2" d="M22.785,23.546c0.041,0.079,0.083,0.155,0.122,0.234l0.388-0.218c-0.004-0.096-0.006-0.201-0.01-0.299
		L22.785,23.546z"/>
	<polygon fill="#B2B2B2" points="20.44,24.866 20.44,25.17 22.012,24.285 21.877,24.057 	"/>
	<path fill="#B2B2B2" d="M15.63,21.753c0.028,0.106,0.083,0.202,0.164,0.287l3.605,0.434v-0.268L15.63,21.753z"/>
	<path fill="#B2B2B2" d="M22.229,22.546l0.062,0.102c0.036,0.062,0.066,0.124,0.103,0.186l0.888,0.106
		c-0.002-0.088-0.003-0.178-0.005-0.269L22.229,22.546z"/>
	<path fill="#B2B2B2" d="M14.453,21.611l-1.693-0.203c-0.016,0.096-0.051,0.181-0.105,0.255l1.812,0.218
		c-0.009-0.068-0.02-0.136-0.02-0.209C14.446,21.651,14.452,21.632,14.453,21.611z"/>
	<path fill="#B2B2B2" d="M20.929,22.39l-0.506-0.061c0.003,0.089,0.005,0.177,0.007,0.268l0.657,0.079
		C21.034,22.579,20.98,22.487,20.929,22.39z"/>
	<path fill="#B2B2B2" d="M32.601,24.456v0.271l2.263,0.416c0.025-0.09,0.058-0.172,0.103-0.252L32.601,24.456z"/>
	<polygon fill="#B2B2B2" points="24.315,23.205 26.02,23.518 26.102,23.263 24.315,22.935 	"/>
	<polygon fill="#B2B2B2" points="29.887,23.958 29.98,24.245 31.478,24.521 31.478,24.25 	"/>
	<polygon fill="#B2B2B2" points="27.05,23.577 27.814,23.577 27.092,23.444 	"/>
	<polygon fill="#B2B2B2" points="24.315,23.3 24.315,23.713 25.504,25.125 25.6,24.826 	"/>
	<path fill="#B2B2B2" d="M31.266,31.971c0.053-0.076,0.103-0.149,0.171-0.211l-4.994-5.934L26.35,26.13L31.266,31.971z"/>
	<path fill="#B2B2B2" d="M29.661,37.729c0.071,0.068,0.122,0.152,0.174,0.236l2.296-4.206c-0.096-0.007-0.186-0.027-0.271-0.055
		L29.661,37.729z"/>
	<path fill="#B2B2B2" d="M35.912,26.703l2.557,8.035c0.062-0.009,0.125-0.02,0.19-0.02c0.028,0,0.056,0.007,0.084,0.009
		l-2.555-8.029c-0.052,0.007-0.097,0.03-0.15,0.03C35.993,26.729,35.955,26.707,35.912,26.703z"/>
	<path fill="#B2B2B2" d="M36.834,24.548c0.078,0.065,0.138,0.142,0.197,0.224l3.237-0.847c-0.029-0.082-0.048-0.169-0.053-0.26
		L36.834,24.548z"/>
	<path fill="#B2B2B2" d="M35.982,24.252c0.02-0.001,0.036-0.012,0.056-0.012c0.074,0,0.138,0.029,0.208,0.042l0.683-4.426
		c-0.092-0.004-0.176-0.03-0.262-0.053L35.982,24.252z"/>
	<path fill="#B2B2B2" d="M35.729,18.622L35.729,18.622c0-0.095,0.034-0.177,0.054-0.264l-2.907-0.074
		c-0.004,0.092-0.022,0.18-0.053,0.263L35.729,18.622z"/>
	<path fill="#B2B2B2" d="M28.631,20.09l2.648-1.324c-0.054-0.072-0.1-0.146-0.129-0.232l-2.906,1.453h0.353L28.631,20.09z"/>
	<polygon fill="#B2B2B2" points="26.83,20.99 26.943,20.637 24.315,21.95 24.315,22.248 	"/>
	<path fill="#B2B2B2" d="M15.718,15.535l4.833,4.451h0.138l0.172,0.285l2.412,2.223c-0.001-0.118-0.006-0.222-0.006-0.344v-0.024
		l-7.351-6.77C15.861,15.429,15.796,15.488,15.718,15.535z"/>
	<path fill="#B2B2B2" d="M24.005,16.101c-0.095-0.001-0.181-0.031-0.268-0.054l0.171,3.939h0.266L24.005,16.101z"/>
	<path fill="#B2B2B2" d="M27.325,12.322c-0.062-0.065-0.104-0.144-0.149-0.222l-2.598,1.905c0.082,0.048,0.168,0.092,0.235,0.158
		L27.325,12.322z"/>
	<path fill="#666666" d="M31.989,17.35c-0.496,0-0.896,0.4-0.896,0.896c0,0.102,0.026,0.196,0.058,0.287
		c0.029,0.086,0.075,0.16,0.129,0.232c0.162,0.222,0.412,0.375,0.71,0.375c0.388,0,0.71-0.249,0.834-0.594
		c0.03-0.083,0.049-0.171,0.053-0.263c0.001-0.014,0.008-0.024,0.008-0.038C32.884,17.75,32.483,17.35,31.989,17.35z"/>
	<path fill="#666666" d="M41.104,22.73c-0.495,0-0.896,0.4-0.896,0.895c0,0.014,0.007,0.026,0.008,0.04
		c0.005,0.091,0.023,0.178,0.053,0.26c0.124,0.347,0.446,0.597,0.836,0.597c0.494,0,0.896-0.4,0.896-0.896
		C42,23.131,41.599,22.73,41.104,22.73z"/>
	<path fill="#666666" d="M36.974,17.377c-0.595,0-1.067,0.425-1.19,0.981c-0.02,0.087-0.054,0.169-0.054,0.263v0.001
		c0.001,0.578,0.403,1.042,0.938,1.182c0.086,0.022,0.17,0.049,0.262,0.053c0.017,0,0.029,0.009,0.045,0.009
		c0.688,0,1.244-0.557,1.244-1.244S37.661,17.377,36.974,17.377z"/>
	<path fill="#666666" d="M37.031,24.771c-0.06-0.082-0.119-0.158-0.197-0.224c-0.164-0.14-0.365-0.227-0.588-0.266
		c-0.07-0.013-0.134-0.042-0.208-0.042c-0.02,0-0.036,0.011-0.056,0.012c-0.442,0.021-0.812,0.273-1.017,0.639
		c-0.045,0.08-0.077,0.162-0.103,0.252c-0.033,0.11-0.069,0.221-0.069,0.342c0,0.641,0.493,1.152,1.118,1.219
		c0.043,0.004,0.081,0.025,0.126,0.025c0.054,0,0.099-0.023,0.15-0.03c0.612-0.077,1.094-0.581,1.094-1.214
		C37.282,25.214,37.178,24.977,37.031,24.771z"/>
	<path fill="#666666" d="M32.204,31.455c-0.298,0-0.562,0.12-0.768,0.305c-0.068,0.062-0.118,0.135-0.171,0.211
		c-0.128,0.187-0.221,0.4-0.221,0.645c0,0.517,0.346,0.939,0.814,1.089c0.086,0.027,0.176,0.048,0.271,0.055
		c0.025,0.002,0.047,0.015,0.073,0.015c0.64,0,1.158-0.52,1.158-1.158C33.362,31.975,32.844,31.455,32.204,31.455z"/>
	<path fill="#666666" d="M29.835,37.965c-0.052-0.084-0.103-0.168-0.174-0.236c-0.198-0.188-0.463-0.307-0.758-0.307
		c-0.613,0-1.109,0.498-1.109,1.111s0.496,1.109,1.109,1.109s1.11-0.496,1.11-1.109C30.014,38.321,29.938,38.134,29.835,37.965z"/>
	<path fill="#666666" d="M23.709,31.723c-0.082-0.031-0.171-0.052-0.264-0.054c-0.006,0-0.011-0.003-0.017-0.003
		c-0.438,0-0.795,0.355-0.795,0.795s0.356,0.795,0.795,0.795c0.439,0,0.795-0.355,0.795-0.795
		C24.224,32.121,24.009,31.836,23.709,31.723z"/>
	<path fill="#666666" d="M38.743,34.728c-0.028-0.002-0.056-0.009-0.084-0.009c-0.065,0-0.128,0.011-0.19,0.02
		c-0.715,0.095-1.269,0.7-1.269,1.439c0,0.807,0.654,1.461,1.459,1.461c0.807,0,1.461-0.654,1.461-1.461
		C40.12,35.401,39.51,34.771,38.743,34.728z"/>
	<path fill="#666666" d="M17.722,33.641c-0.049,0-0.092,0.02-0.138,0.028c-0.091,0.017-0.174,0.044-0.252,0.088
		c-0.237,0.138-0.405,0.384-0.405,0.679c0,0.438,0.356,0.795,0.795,0.795c0.439,0,0.795-0.357,0.795-0.795
		C18.517,33.996,18.161,33.641,17.722,33.641z"/>
	<path fill="#666666" d="M11.07,27.237c-0.008-0.432-0.357-0.78-0.792-0.78c-0.438,0-0.795,0.355-0.795,0.795
		s0.356,0.795,0.795,0.795c0.353,0,0.641-0.231,0.745-0.549c0.026-0.078,0.05-0.158,0.05-0.246
		C11.073,27.247,11.07,27.243,11.07,27.237z"/>
	<path fill="#666666" d="M12.169,20.699c-0.127,0-0.238,0.048-0.337,0.114c-0.076,0.053-0.139,0.118-0.186,0.198
		c-0.051,0.09-0.089,0.188-0.089,0.299c0,0.047,0.017,0.089,0.026,0.133c0.021,0.092,0.059,0.176,0.117,0.246
		c0.111,0.139,0.275,0.232,0.468,0.232c0.203,0,0.374-0.105,0.485-0.259c0.055-0.074,0.09-0.159,0.105-0.255
		c0.006-0.033,0.021-0.062,0.021-0.098C12.78,20.975,12.506,20.699,12.169,20.699z"/>
	<path fill="#666666" d="M7.178,22.651c-0.036-0.093-0.095-0.171-0.168-0.235c-0.107-0.094-0.244-0.156-0.398-0.156
		C6.273,22.26,6,22.533,6,22.871s0.273,0.611,0.611,0.611c0.337,0,0.61-0.273,0.61-0.611C7.222,22.793,7.204,22.72,7.178,22.651z"/>
	<path fill="#666666" d="M9.307,16.74c-0.036-0.006-0.069-0.021-0.107-0.021c-0.058,0-0.109,0.02-0.162,0.033
		c-0.303,0.074-0.532,0.335-0.532,0.66c0,0.383,0.311,0.695,0.694,0.695c0.121,0,0.229-0.039,0.328-0.094
		c0.08-0.045,0.147-0.102,0.205-0.172c0.096-0.12,0.161-0.266,0.161-0.43C9.894,17.067,9.637,16.794,9.307,16.74z"/>
	<path fill="#666666" d="M7.997,11.525c-0.343,0-0.62,0.277-0.62,0.619c0,0.344,0.277,0.621,0.62,0.621
		c0.032,0,0.06-0.014,0.091-0.019c0.093-0.014,0.176-0.047,0.25-0.098c0.047-0.032,0.09-0.065,0.127-0.109
		c0.057-0.068,0.096-0.148,0.119-0.238c0.014-0.051,0.032-0.102,0.032-0.157C8.616,11.803,8.339,11.525,7.997,11.525z"/>
	<path fill="#666666" d="M16.016,14.669c-0.035-0.083-0.084-0.157-0.146-0.222c-0.129-0.135-0.309-0.221-0.51-0.221
		c-0.281,0-0.52,0.168-0.635,0.406c-0.039,0.079-0.06,0.166-0.066,0.258c0,0.017-0.009,0.03-0.009,0.047
		c0,0.391,0.318,0.709,0.71,0.709c0.134,0,0.252-0.047,0.358-0.111c0.078-0.047,0.144-0.106,0.198-0.179
		c0.09-0.119,0.153-0.259,0.153-0.419C16.069,14.843,16.049,14.752,16.016,14.669z"/>
	<path fill="#666666" d="M14.742,9.059c-0.028-0.391-0.346-0.701-0.743-0.701c-0.416,0-0.752,0.336-0.752,0.752
		s0.336,0.752,0.752,0.752c0.338,0,0.612-0.226,0.708-0.531c0.022-0.071,0.045-0.143,0.045-0.221
		C14.752,9.091,14.743,9.076,14.742,9.059z"/>
	<path fill="#666666" d="M19.938,9.98c-0.468,0-0.864,0.28-1.047,0.679c-0.037,0.081-0.048,0.171-0.065,0.26
		c-0.015,0.073-0.044,0.141-0.044,0.218c0,0.278,0.112,0.524,0.276,0.725c0.059,0.07,0.123,0.128,0.196,0.183
		c0.193,0.146,0.423,0.249,0.684,0.249c0.639,0,1.156-0.52,1.156-1.156C21.095,10.498,20.577,9.98,19.938,9.98z"/>
	<path fill="#666666" d="M16.664,27.298c-0.069-0.07-0.158-0.117-0.242-0.168c-0.174-0.104-0.365-0.179-0.581-0.179
		c-0.585,0-1.048,0.44-1.126,1.003c-0.007,0.053-0.03,0.099-0.03,0.153c0,0.041,0.019,0.075,0.023,0.115
		c0.06,0.582,0.535,1.041,1.133,1.041c0.015,0,0.026-0.008,0.041-0.008c0.092-0.004,0.176-0.029,0.261-0.053
		c0.488-0.136,0.854-0.564,0.854-1.096C16.997,27.791,16.869,27.506,16.664,27.298z"/>
	<path fill="#666666" d="M24.813,14.164c-0.067-0.066-0.153-0.11-0.235-0.158c-0.167-0.098-0.352-0.168-0.559-0.168
		c-0.626,0-1.134,0.506-1.134,1.133c0,0.525,0.366,0.947,0.852,1.076c0.087,0.022,0.173,0.053,0.268,0.054
		c0.005,0,0.009,0.003,0.015,0.003c0.626,0,1.133-0.508,1.133-1.133C25.152,14.654,25.021,14.37,24.813,14.164z"/>
	<path fill="#666666" d="M28.184,10.336c-0.653,0-1.183,0.529-1.183,1.184c0,0.216,0.073,0.407,0.175,0.581
		c0.045,0.078,0.088,0.156,0.149,0.222c0.216,0.23,0.518,0.379,0.858,0.379c0.653,0,1.183-0.529,1.183-1.182
		C29.366,10.865,28.837,10.336,28.184,10.336z"/>
	<path fill="#333333" d="M16.776,22.584c-0.489-0.19-0.798-0.351-0.982-0.544c-0.081-0.085-0.136-0.181-0.164-0.287
		c-0.017-0.062-0.042-0.119-0.042-0.191c0-0.359,0.313-0.745,1.031-0.745c0.579,0,1.013,0.174,1.233,0.294l0.277-0.912
		c-0.322-0.165-0.82-0.312-1.492-0.312c-1.316,0-2.151,0.744-2.185,1.726c-0.001,0.021-0.007,0.04-0.007,0.061
		c0,0.073,0.011,0.141,0.02,0.209c0.097,0.769,0.718,1.257,1.656,1.596c0.791,0.285,1.104,0.562,1.104,1.031
		c0,0.506-0.405,0.847-1.132,0.847c-0.58,0-1.133-0.185-1.501-0.396l-0.249,0.939c0.341,0.203,1.022,0.387,1.676,0.387
		c1.602,0,2.357-0.865,2.357-1.859C18.378,23.532,17.853,22.988,16.776,22.584z"/>
	<path fill="#333333" d="M24.174,19.986h-0.266h-0.642v2.14v0.024c0,0.122,0.005,0.226,0.006,0.344
		c0.001,0.061,0.003,0.117,0.003,0.177c0.002,0.091,0.003,0.181,0.005,0.269c0.002,0.106,0.002,0.22,0.005,0.324
		c0.004,0.098,0.006,0.203,0.01,0.299c0.016,0.395,0.038,0.777,0.072,1.166h-0.019c-0.131-0.309-0.281-0.627-0.441-0.948
		c-0.039-0.079-0.081-0.155-0.122-0.234c-0.123-0.239-0.256-0.477-0.393-0.713c-0.036-0.062-0.066-0.124-0.103-0.186l-0.062-0.102
		l-1.368-2.274l-0.172-0.285h-0.138h-1.151v2.22v0.268v2.979v0.305v0.435h1.041V25.17v-0.304v-0.893
		c0-0.501-0.003-0.952-0.011-1.377c-0.002-0.091-0.004-0.179-0.007-0.268c-0.009-0.343-0.021-0.674-0.039-0.998l0.028-0.009
		c0.15,0.346,0.328,0.707,0.517,1.067c0.052,0.098,0.105,0.189,0.158,0.286c0.146,0.269,0.292,0.539,0.439,0.792l0.351,0.589
		l0.135,0.229l1.135,1.906h0.459h0.266h0.444v-2.479V23.3v-0.095v-0.271v-0.687V21.95v-1.964H24.174z"/>
	<path fill="#333333" d="M29.98,24.245l-0.094-0.287l-1.256-3.868l-0.034-0.104h-0.353h-1.093l-0.208,0.65L26.83,20.99l-0.729,2.272
		l-0.082,0.255l-0.42,1.309l-0.096,0.299l-0.342,1.066h1.169l0.019-0.062l0.093-0.304l0.424-1.393h1.969l0.562,1.758h1.215
		L29.98,24.245z M27.814,23.577H27.05l0.042-0.133l0.437-1.396c0.11-0.368,0.203-0.801,0.295-1.16h0.018
		c0.093,0.359,0.193,0.783,0.313,1.16l0.487,1.528H27.814z"/>
	<path fill="#333333" d="M35.04,20.447c-0.396-0.331-1.003-0.507-1.832-0.507c-0.764,0-1.325,0.057-1.73,0.129v4.181v0.271v1.671
		h1.123v-1.465v-0.271v-0.603c0.148,0.028,0.341,0.037,0.553,0.037c0.801,0,1.51-0.212,1.961-0.663
		c0.35-0.332,0.533-0.819,0.533-1.408C35.647,21.239,35.409,20.751,35.04,20.447z M33.153,23.007c-0.23,0-0.414-0.009-0.553-0.047
		v-2.099c0.119-0.027,0.341-0.055,0.654-0.055c0.782,0,1.262,0.368,1.262,1.059C34.517,22.592,34.001,23.007,33.153,23.007z"/>
</g>
</svg>
