<?xml version="1.0" encoding="utf-8"?>
<!-- Generator: Adobe Illustrator 16.1.0, SVG Export Plug-In . SVG Version: 6.00 Build 0)  -->
<!DOCTYPE svg PUBLIC "-//W3C//DTD SVG 1.1//EN" "http://www.w3.org/Graphics/SVG/1.1/DTD/svg11.dtd">
<svg version="1.1" id="Layer_1" xmlns="http://www.w3.org/2000/svg" xmlns:xlink="http://www.w3.org/1999/xlink" x="0px" y="0px"
	 width="48px" height="48px" viewBox="0 0 48 48" enable-background="new 0 0 48 48" xml:space="preserve">
<g>
	<path fill="#666666" d="M15.826,12.978c-0.302,0.144-0.628,0.228-0.97,0.244l0.453,1.997c0.3-0.147,0.625-0.236,0.967-0.258
		L15.826,12.978z"/>
	<path fill="#666666" d="M14.054,16.608l-3.609-1.443c-0.011,0.124-0.02,0.248-0.05,0.373c-0.051,0.212-0.134,0.406-0.23,0.591
		l3.729,1.491c-0.011-0.233-0.001-0.471,0.056-0.709C13.974,16.805,14.017,16.708,14.054,16.608z"/>
	<path fill="#666666" d="M13.55,20.539c0.286,0.184,0.529,0.419,0.719,0.694l1.327-1.327c-0.337-0.118-0.634-0.298-0.885-0.529
		L13.55,20.539z"/>
	<path fill="#666666" d="M21.667,21.976c0.194-0.286,0.439-0.528,0.725-0.713l-3.667-2.619c-0.153,0.307-0.362,0.573-0.614,0.79
		L21.667,21.976z"/>
	<path fill="#666666" d="M18.497,16.001c0.199,0.273,0.344,0.582,0.422,0.914l2.73-1.705c-0.265-0.218-0.479-0.482-0.637-0.781
		L18.497,16.001z"/>
	<path fill="#666666" d="M16.624,8.953l1.288-1.934c-0.275-0.129-0.515-0.311-0.722-0.52h-0.134l-1.238,1.858
		C16.13,8.504,16.401,8.708,16.624,8.953z"/>
	<path fill="#666666" d="M14.297,8.154L13.884,6.5h-1.03l0.505,2.021C13.643,8.34,13.96,8.213,14.297,8.154z"/>
	<path fill="#666666" d="M9.519,7.921c-0.09,0.337-0.241,0.641-0.442,0.901l3.188,1.195c0.09-0.337,0.242-0.641,0.443-0.9
		L9.519,7.921z"/>
	<path fill="#666666" d="M6.081,23.059c0.104,0.314,0.145,0.65,0.117,0.994l3.547-0.583c-0.104-0.314-0.143-0.65-0.114-0.994
		L6.081,23.059z"/>
	<path fill="#666666" d="M10.747,24.802l-1.666,2.845c0.013,0.003,0.025,0.002,0.037,0.005c0.328,0.078,0.624,0.22,0.883,0.404
		l1.68-2.868c-0.033-0.007-0.066-0.006-0.101-0.014C11.272,25.101,10.995,24.969,10.747,24.802z"/>
	<path fill="#666666" d="M32.924,14.429l1.708,1.592c0.191-0.281,0.435-0.519,0.715-0.701l-1.707-1.592
		C33.447,14.009,33.204,14.246,32.924,14.429z"/>
	<path fill="#666666" d="M33.876,11.279c0.133,0.308,0.205,0.641,0.208,0.986l3.98-0.33c-0.123-0.31-0.188-0.644-0.181-0.988
		L33.876,11.279z"/>
	<path fill="#666666" d="M35.093,7.59c-0.315-0.142-0.592-0.341-0.818-0.583l-1.692,2.948c0.314,0.141,0.591,0.34,0.817,0.584
		L35.093,7.59z"/>
	<path fill="#666666" d="M29.035,11.744l-3.452,0.432c0.14,0.305,0.22,0.635,0.23,0.979l3.205-0.401
		C28.958,12.429,28.96,12.087,29.035,11.744z"/>
	<path fill="#666666" d="M6.427,31.591l-0.428,0.487v1.515l1.147-1.306C6.859,32.102,6.616,31.866,6.427,31.591z"/>
	<path fill="#666666" d="M9.044,36.476c0.311-0.115,0.646-0.17,0.989-0.155l-0.435-3.867c-0.305,0.142-0.636,0.224-0.98,0.236
		L9.044,36.476z"/>
	<path fill="#666666" d="M13.329,33.566c0.132-0.319,0.322-0.601,0.559-0.834l-3.007-1.611c-0.132,0.319-0.323,0.601-0.56,0.834
		L13.329,33.566z"/>
	<path fill="#666666" d="M22.8,32.885l-0.737,3.505c0.217-0.005,0.437,0.007,0.657,0.06c0.115,0.027,0.221,0.072,0.328,0.114
		l0.689-3.275c-0.023-0.005-0.047-0.004-0.07-0.01C23.345,33.202,23.056,33.063,22.8,32.885z"/>
	<path fill="#666666" d="M26.966,34.731c0.22-0.261,0.486-0.472,0.786-0.626l-1.565-1.647c-0.225,0.257-0.494,0.464-0.797,0.614
		L26.966,34.731z"/>
	<path fill="#666666" d="M23.384,25.922l0.243,2.397c0.32-0.082,0.657-0.102,1.001-0.052l-0.242-2.386
		C24.064,25.961,23.728,25.977,23.384,25.922z"/>
	<path fill="#666666" d="M28.787,27.423c0.135-0.316,0.327-0.596,0.565-0.826l-3.17-2.344c-0.115,0.328-0.29,0.618-0.514,0.864
		L28.787,27.423z"/>
	<path fill="#666666" d="M29.562,22.267c-0.138-0.305-0.216-0.635-0.226-0.979L26.12,22.39c0.134,0.308,0.207,0.64,0.212,0.984
		L29.562,22.267z"/>
	<g>
		<path fill="#333333" d="M14.14,13.166c0.241,0.058,0.48,0.067,0.717,0.056c0.342-0.017,0.668-0.101,0.97-0.244
			c0.675-0.321,1.209-0.924,1.396-1.707c0.204-0.855-0.048-1.712-0.598-2.317c-0.223-0.245-0.494-0.449-0.806-0.595
			c-0.155-0.073-0.319-0.132-0.493-0.173c-0.348-0.083-0.696-0.089-1.028-0.031c-0.337,0.059-0.654,0.186-0.938,0.366
			c-0.248,0.158-0.468,0.36-0.65,0.597c-0.201,0.26-0.354,0.563-0.443,0.9c-0.006,0.023-0.018,0.043-0.022,0.066
			C11.914,11.458,12.764,12.84,14.14,13.166z"/>
		<path fill="#333333" d="M18.497,16.001c-0.347-0.476-0.849-0.84-1.465-0.987c-0.172-0.041-0.344-0.063-0.514-0.069
			c-0.082-0.002-0.161,0.011-0.242,0.017c-0.342,0.021-0.667,0.11-0.967,0.258c-0.567,0.281-1.022,0.767-1.256,1.39
			c-0.037,0.1-0.08,0.196-0.105,0.303c-0.057,0.238-0.066,0.476-0.056,0.709c0.03,0.678,0.329,1.305,0.818,1.757
			c0.251,0.231,0.548,0.411,0.885,0.529c0.083,0.029,0.163,0.066,0.251,0.087c0.832,0.198,1.662-0.04,2.264-0.56
			c0.252-0.217,0.461-0.483,0.614-0.79c0.086-0.172,0.157-0.352,0.204-0.546c0.096-0.404,0.081-0.805-0.01-1.183
			C18.841,16.583,18.696,16.274,18.497,16.001z"/>
		<path fill="#333333" d="M9.683,22.093c-0.031,0.128-0.041,0.256-0.052,0.383c-0.028,0.344,0.011,0.68,0.114,0.994
			c0.175,0.54,0.524,1.011,1.002,1.332c0.248,0.167,0.525,0.299,0.833,0.372c0.034,0.008,0.067,0.007,0.101,0.014
			c1.34,0.263,2.661-0.57,2.98-1.909c0.176-0.736,0.006-1.469-0.393-2.045c-0.189-0.275-0.433-0.511-0.719-0.694
			c-0.237-0.152-0.496-0.276-0.785-0.346C11.39,19.866,10.009,20.716,9.683,22.093z"/>
		<path fill="#333333" d="M10.164,16.129c0.097-0.185,0.18-0.379,0.23-0.591c0.03-0.125,0.039-0.249,0.05-0.373
			c0.109-1.245-0.695-2.413-1.945-2.712c-0.949-0.227-1.894,0.117-2.5,0.799v3.396c0.336,0.377,0.785,0.66,1.313,0.785
			C8.476,17.71,9.634,17.14,10.164,16.129z"/>
		<path fill="#333333" d="M21.013,14.429c0.158,0.299,0.372,0.563,0.637,0.781c0.291,0.239,0.633,0.424,1.023,0.517
			c1.376,0.327,2.756-0.522,3.083-1.896c0.054-0.228,0.065-0.453,0.058-0.676c-0.011-0.345-0.091-0.675-0.23-0.979
			c-0.316-0.69-0.927-1.239-1.724-1.43c-1.376-0.328-2.757,0.522-3.083,1.898C20.626,13.272,20.731,13.898,21.013,14.429z"/>
		<path fill="#333333" d="M30.94,14.776c0.709,0.169,1.416,0.021,1.983-0.348c0.28-0.183,0.523-0.42,0.716-0.701
			c0.172-0.251,0.307-0.533,0.382-0.847c0.05-0.207,0.063-0.412,0.062-0.615c-0.003-0.346-0.075-0.679-0.208-0.986
			c-0.117-0.271-0.273-0.524-0.477-0.74c-0.227-0.244-0.503-0.443-0.817-0.584c-0.145-0.065-0.296-0.121-0.456-0.159
			c-1.375-0.327-2.757,0.522-3.084,1.898c-0.004,0.017-0.003,0.033-0.007,0.05c-0.075,0.343-0.077,0.685-0.017,1.01
			C29.198,13.718,29.924,14.535,30.94,14.776z"/>
		<path fill="#333333" d="M35.093,7.59c0.145,0.064,0.297,0.12,0.457,0.158c1.14,0.272,2.273-0.273,2.818-1.248h-2.65h-1.153h-0.659
			c0.102,0.183,0.225,0.354,0.369,0.507C34.501,7.249,34.777,7.448,35.093,7.59z"/>
		<path fill="#333333" d="M41.033,8.502c-1.375-0.328-2.757,0.522-3.083,1.898c-0.044,0.184-0.063,0.366-0.066,0.547
			c-0.007,0.345,0.058,0.679,0.181,0.988c0.298,0.748,0.94,1.346,1.783,1.546c0.784,0.187,1.562-0.019,2.153-0.476V8.97
			C41.722,8.754,41.397,8.589,41.033,8.502z"/>
		<path fill="#333333" d="M37.332,14.972c-0.71-0.169-1.418-0.021-1.985,0.348c-0.28,0.183-0.523,0.42-0.715,0.701
			c-0.173,0.252-0.309,0.535-0.383,0.85c-0.329,1.373,0.521,2.756,1.897,3.082c1.374,0.327,2.755-0.522,3.081-1.896
			C39.556,16.68,38.707,15.3,37.332,14.972z"/>
		<path fill="#333333" d="M32.479,18.726c-1.376-0.327-2.757,0.522-3.083,1.898c-0.054,0.223-0.065,0.444-0.06,0.664
			c0.01,0.344,0.088,0.674,0.226,0.979c0.316,0.696,0.93,1.249,1.73,1.439c1.375,0.327,2.756-0.522,3.082-1.896
			C34.702,20.435,33.854,19.055,32.479,18.726z"/>
		<path fill="#333333" d="M24.374,20.916c-0.709-0.169-1.416-0.021-1.982,0.347c-0.285,0.185-0.53,0.427-0.725,0.713
			c-0.168,0.249-0.303,0.528-0.376,0.839c-0.328,1.373,0.521,2.755,1.897,3.081c0.065,0.016,0.13,0.016,0.195,0.026
			c0.344,0.055,0.681,0.039,1.002-0.04c0.496-0.121,0.94-0.388,1.283-0.765c0.224-0.246,0.398-0.536,0.514-0.864
			c0.029-0.084,0.066-0.163,0.088-0.252c0.051-0.211,0.064-0.42,0.062-0.627c-0.005-0.345-0.078-0.677-0.212-0.984
			C25.81,21.678,25.188,21.11,24.374,20.916z"/>
		<path fill="#333333" d="M31.728,25.935c-0.885-0.211-1.769,0.07-2.375,0.662c-0.238,0.23-0.431,0.51-0.565,0.826
			c-0.056,0.132-0.107,0.266-0.142,0.409c-0.329,1.374,0.521,2.755,1.897,3.082c1.374,0.328,2.754-0.522,3.081-1.895
			C33.952,27.643,33.104,26.262,31.728,25.935z"/>
		<path fill="#333333" d="M24.854,28.298c-0.075-0.018-0.151-0.02-0.226-0.03c-0.344-0.05-0.681-0.03-1.001,0.052
			c-0.89,0.229-1.63,0.921-1.856,1.877c-0.252,1.052,0.191,2.104,1.029,2.688c0.256,0.179,0.545,0.317,0.867,0.394
			c0.023,0.006,0.047,0.005,0.07,0.01c0.581,0.122,1.156,0.03,1.652-0.216c0.303-0.15,0.572-0.357,0.797-0.614
			c0.262-0.302,0.465-0.66,0.563-1.075C27.077,30.007,26.229,28.627,24.854,28.298z"/>
		<path fill="#333333" d="M29.509,33.883c-0.618-0.147-1.232-0.047-1.757,0.223c-0.3,0.154-0.566,0.365-0.786,0.626
			c-0.25,0.296-0.444,0.646-0.54,1.05c-0.329,1.373,0.521,2.756,1.897,3.081c1.375,0.328,2.754-0.521,3.082-1.895
			C31.733,35.591,30.884,34.212,29.509,33.883z"/>
		<path fill="#333333" d="M23.048,36.563c-0.107-0.042-0.213-0.087-0.328-0.114c-0.221-0.053-0.44-0.064-0.657-0.06
			c-1.134,0.029-2.153,0.803-2.427,1.959c-0.328,1.373,0.521,2.755,1.897,3.082c1.376,0.326,2.755-0.522,3.083-1.896
			C24.916,38.272,24.223,37.02,23.048,36.563z"/>
		<path fill="#333333" d="M16.278,32.054c-0.893-0.212-1.782,0.077-2.391,0.679c-0.236,0.233-0.427,0.515-0.559,0.834
			c-0.053,0.125-0.103,0.251-0.135,0.387c-0.328,1.373,0.521,2.755,1.898,3.082c1.374,0.326,2.754-0.522,3.081-1.896
			C18.503,33.763,17.653,32.383,16.278,32.054z"/>
		<path fill="#333333" d="M10.523,36.386c-0.164-0.039-0.327-0.06-0.49-0.065c-0.343-0.015-0.679,0.04-0.989,0.155
			c-0.775,0.287-1.398,0.943-1.604,1.809c-0.328,1.373,0.522,2.755,1.897,3.081c1.375,0.328,2.756-0.522,3.082-1.895
			C12.747,38.094,11.898,36.714,10.523,36.386z"/>
		<path fill="#333333" d="M8.618,32.689c0.345-0.013,0.676-0.095,0.98-0.236c0.268-0.124,0.512-0.29,0.723-0.498
			c0.236-0.233,0.428-0.515,0.56-0.834c0.052-0.124,0.102-0.25,0.134-0.385c0.25-1.048-0.186-2.095-1.014-2.681
			c-0.259-0.185-0.555-0.326-0.883-0.404c-0.012-0.003-0.024-0.002-0.037-0.005c-1.362-0.305-2.722,0.54-3.045,1.903
			c-0.023,0.099-0.025,0.196-0.037,0.294v0.599c0.053,0.415,0.193,0.81,0.428,1.148c0.189,0.275,0.433,0.511,0.72,0.696
			c0.237,0.152,0.497,0.276,0.786,0.345C8.163,32.687,8.392,32.697,8.618,32.689z"/>
		<path fill="#333333" d="M6.198,24.053c0.027-0.344-0.014-0.68-0.117-0.994c-0.02-0.062-0.057-0.115-0.082-0.176v0.189v1.014v0.78
			c0.059-0.136,0.111-0.274,0.146-0.422C6.177,24.313,6.188,24.183,6.198,24.053z"/>
		<path fill="#333333" d="M9.076,8.822c0.201-0.261,0.353-0.564,0.442-0.901C9.524,7.899,9.536,7.88,9.541,7.857
			C9.652,7.391,9.619,6.927,9.485,6.5H5.999v3.093c0.146,0.065,0.299,0.121,0.46,0.159C7.47,9.993,8.479,9.594,9.076,8.822z"/>
		<path fill="#333333" d="M18.259,6.5H17.19c0.207,0.209,0.446,0.391,0.722,0.52c0.155,0.073,0.321,0.132,0.495,0.173
			c0.9,0.215,1.795-0.081,2.402-0.692H18.259z"/>
	</g>
</g>
</svg>
