<?xml version="1.0" encoding="utf-8"?>
<!-- Generator: Adobe Illustrator 16.1.0, SVG Export Plug-In . SVG Version: 6.00 Build 0)  -->
<!DOCTYPE svg PUBLIC "-//W3C//DTD SVG 1.1//EN" "http://www.w3.org/Graphics/SVG/1.1/DTD/svg11.dtd">
<svg version="1.1" id="Layer_1" xmlns="http://www.w3.org/2000/svg" xmlns:xlink="http://www.w3.org/1999/xlink" x="0px" y="0px"
	 width="48px" height="48px" viewBox="0 0 48 48" enable-background="new 0 0 48 48" xml:space="preserve">
<g>
	<polygon fill="none" points="36.374,42 36.447,42 36.378,41.988 	"/>
	<path fill="#666666" d="M25.885,20.952c-0.702-0.034-1.374-0.206-1.991-0.501l-0.926,4.07c0.701,0.045,1.371,0.227,1.984,0.53
		L25.885,20.952z"/>
	<path fill="#666666" d="M27.862,29.98l7.653-3.061c-0.2-0.379-0.37-0.778-0.475-1.214c-0.061-0.256-0.08-0.51-0.103-0.764
		l-7.407,2.961c0.077,0.205,0.164,0.404,0.216,0.623C27.864,29.016,27.884,29.501,27.862,29.98z"/>
	<path fill="#666666" d="M27.09,37.396c0.39-0.564,0.888-1.047,1.478-1.426l-2.385-2.384c-0.514,0.474-1.125,0.844-1.816,1.086
		L27.09,37.396z"/>
	<path fill="#666666" d="M17.942,32.081l-7.526,5.377c0.585,0.379,1.088,0.875,1.486,1.463l7.302-5.217
		c-0.04-0.035-0.088-0.06-0.127-0.096C18.613,33.182,18.231,32.662,17.942,32.081z"/>
	<path fill="#666666" d="M11.94,25.033l5.603,3.502c0.163-0.684,0.459-1.317,0.868-1.879l-5.164-3.228
		C12.923,24.043,12.482,24.587,11.94,25.033z"/>
	<path fill="#666666" d="M23.908,10.968l-2.646-3.967c-0.457,0.503-1.014,0.922-1.651,1.22l2.646,3.968
		C22.714,11.686,23.271,11.267,23.908,10.968z"/>
	<path fill="#666666" d="M28.96,11.302L30.285,6H28.17l-1.138,4.55C27.724,10.67,28.376,10.93,28.96,11.302z"/>
	<path fill="#666666" d="M37.749,11.921c-0.413-0.535-0.725-1.158-0.908-1.85l-6.547,2.454c0.413,0.535,0.725,1.158,0.909,1.85
		L37.749,11.921z"/>
	<path fill="#666666" d="M36.378,41.988L36.447,42H42v-1.166l-5.39-0.886C36.669,40.653,36.587,41.342,36.378,41.988z"/>
	<g>
		<path fill="#333333" d="M21.028,16.946c0.383,1.607,1.479,2.846,2.865,3.505c0.617,0.295,1.289,0.467,1.991,0.501
			c0.483,0.023,0.976,0.004,1.471-0.114c2.824-0.67,4.568-3.508,3.895-6.327c-0.011-0.048-0.034-0.089-0.047-0.136
			c-0.185-0.691-0.496-1.314-0.909-1.85c-0.373-0.484-0.824-0.898-1.334-1.224c-0.584-0.372-1.236-0.632-1.928-0.752
			c-0.682-0.118-1.396-0.105-2.112,0.064c-0.355,0.085-0.693,0.205-1.012,0.354c-0.638,0.299-1.194,0.718-1.651,1.221
			C21.128,13.431,20.61,15.189,21.028,16.946z"/>
		<path fill="#333333" d="M27.862,29.98c0.021-0.479,0.002-0.965-0.115-1.454c-0.052-0.219-0.139-0.418-0.216-0.623
			c-0.479-1.279-1.413-2.274-2.579-2.852c-0.613-0.304-1.283-0.485-1.984-0.53c-0.165-0.011-0.328-0.038-0.496-0.033
			c-0.35,0.012-0.703,0.059-1.056,0.143c-0.705,0.168-1.343,0.472-1.893,0.876c-0.436,0.321-0.798,0.719-1.112,1.149
			c-0.409,0.562-0.705,1.195-0.868,1.879c-0.139,0.581-0.191,1.188-0.126,1.806c0.021,0.205,0.057,0.412,0.106,0.619
			c0.095,0.398,0.243,0.769,0.419,1.121c0.289,0.581,0.671,1.101,1.135,1.527c0.039,0.036,0.087,0.061,0.127,0.096
			c0.979,0.847,2.252,1.333,3.592,1.29c0.35-0.012,0.703-0.059,1.056-0.143c0.181-0.043,0.343-0.118,0.515-0.179
			c0.691-0.242,1.303-0.612,1.816-1.086C27.187,32.659,27.799,31.372,27.862,29.98z"/>
		<path fill="#333333" d="M30.176,35.263c-0.593,0.142-1.124,0.396-1.608,0.708c-0.59,0.379-1.088,0.861-1.478,1.426
			c-0.819,1.184-1.166,2.687-0.807,4.199c0.034,0.142,0.097,0.268,0.141,0.404h4.046h2.254h3.65
			c0.002-0.004,0.002-0.008,0.004-0.012c0.209-0.646,0.291-1.335,0.232-2.04c-0.021-0.262-0.043-0.524-0.106-0.787
			C35.835,36.335,32.998,34.591,30.176,35.263z"/>
		<path fill="#333333" d="M38.935,19.374c-2.568,0.614-4.219,3.014-3.996,5.568c0.022,0.254,0.042,0.508,0.103,0.764
			c0.104,0.436,0.274,0.835,0.475,1.214c1.09,2.074,3.468,3.244,5.854,2.676c0.222-0.053,0.423-0.141,0.631-0.219v-9.811
			C41.053,19.209,39.993,19.121,38.935,19.374z"/>
		<path fill="#333333" d="M7.403,15.87C6.893,15.992,6.433,16.206,6,16.456v2.618v0.981v0.039v1.226v4.202
			c1.122,0.647,2.478,0.895,3.838,0.571c0.803-0.19,1.505-0.57,2.103-1.061c0.542-0.446,0.982-0.99,1.307-1.604
			c0.576-1.089,0.793-2.372,0.485-3.662C13.062,16.942,10.227,15.196,7.403,15.87z"/>
		<path fill="#333333" d="M11.902,38.921c-0.398-0.588-0.901-1.084-1.486-1.463c-1.163-0.755-2.616-1.06-4.07-0.713
			C6.225,36.774,6.117,36.828,6,36.865v4.017v0.693V42h0.313H6.42h6.378c0.012-0.447-0.014-0.9-0.122-1.356
			C12.524,40.006,12.249,39.434,11.902,38.921z"/>
		<path fill="#333333" d="M37.413,6c-0.689,1.141-0.952,2.54-0.618,3.941c0.011,0.046,0.033,0.085,0.046,0.13
			c0.184,0.691,0.495,1.314,0.908,1.85c1.002,1.298,2.572,2.078,4.251,2.045V6H37.413z"/>
		<path fill="#333333" d="M18.596,8.574c0.356-0.084,0.696-0.204,1.016-0.354c0.638-0.298,1.194-0.717,1.651-1.22
			C21.539,6.698,21.765,6.357,21.962,6h-1.365h-2.465h-5.33C13.915,8.01,16.249,9.135,18.596,8.574z"/>
	</g>
</g>
</svg>
