<?xml version="1.0" encoding="utf-8"?>
<!-- Generator: Adobe Illustrator 24.0.2, SVG Export Plug-In . SVG Version: 6.00 Build 0)  -->
<svg version="1.1" id="Layer_1" xmlns="http://www.w3.org/2000/svg" xmlns:xlink="http://www.w3.org/1999/xlink" x="0px" y="0px"
	 viewBox="0 0 48 48" style="enable-background:new 0 0 48 48;" xml:space="preserve">
<style type="text/css">
	.st0{fill:#666666;}
	.st1{fill:none;stroke:#666666;stroke-miterlimit:10;}
	.st2{fill:#333333;}
</style>
<g id="zXDtGm_1_">
</g>
<g>
	<ellipse class="st0" cx="24.3" cy="9.1" rx="5.8" ry="5.9"/>
	<ellipse class="st0" cx="17.9" cy="24.4" rx="4.8" ry="4.8"/>
	<path class="st0" d="M12.3,15.9c0,2.6-2.1,4.8-4.7,4.8s-4.7-2.1-4.7-4.8s2.1-4.8,4.7-4.8C10.1,11.1,12.3,13.2,12.3,15.9z"/>
	<ellipse class="st0" cx="39.5" cy="13.6" rx="4.7" ry="4.8"/>
	<polyline class="st1" points="17.9,24.4 24.3,9.1 40.8,14.9 	"/>
	<line class="st1" x1="24.3" y1="9.1" x2="7.5" y2="15.9"/>
</g>
<g>
	<path class="st2" d="M32.2,13.1h0.6l9.5,15H22.7L32.2,13.1z M25.6,26.8h11.7l-5.8-9.5L25.6,26.8z"/>
</g>
<path class="st2" d="M42.3,42.1H22.7v-14h19.6V42.1z M38.4,28.1H25.6v12.8h12.8V28.1z"/>
</svg>
