<svg id="Layer_1" data-name="Layer 1" xmlns="http://www.w3.org/2000/svg" viewBox="0 0 48 48"><defs><style>.cls-1{fill:#333;}.cls-2{fill:none;stroke:#333;stroke-miterlimit:10;stroke-width:2px;}.cls-3{isolation:isolate;}.cls-4{fill:#5d5d5d;}</style></defs><circle class="cls-1" cx="22.66" cy="12.14" r="5.81"/><circle class="cls-1" cx="29.09" cy="27.18" r="4.72"/><circle class="cls-1" cx="39.41" cy="18.78" r="4.72"/><circle class="cls-1" cx="8.59" cy="20.47" r="4.72"/><polyline class="cls-2" points="7.33 21.73 22.66 12.14 29.09 27.18"/><line class="cls-2" x1="37.38" y1="18.78" x2="20.63" y2="12.14"/><g class="cls-3"><path class="cls-4" d="M7.13,36a1.56,1.56,0,0,1,1.39.77,4.68,4.68,0,0,1,0,4.13,1.56,1.56,0,0,1-1.39.77,1.54,1.54,0,0,1-1.39-.77,4.68,4.68,0,0,1,0-4.13A1.54,1.54,0,0,1,7.13,36Zm-1,4,1.85-2.9a1.1,1.1,0,0,0-.38-.43.91.91,0,0,0-1.3.53A3.78,3.78,0,0,0,6,38.81c0,.15,0,.31,0,.48A4.2,4.2,0,0,0,6.08,40Zm2.08-2.26L6.33,40.64a1.16,1.16,0,0,0,.34.38.8.8,0,0,0,.43.12A1,1,0,0,0,8,40.41a4.67,4.67,0,0,0,.27-1.62A4.11,4.11,0,0,0,8.16,37.73Z"/><path class="cls-4" d="M11.2,41V36.86a5.72,5.72,0,0,1-.56.39,3.93,3.93,0,0,1-.75.33V37a4.5,4.5,0,0,0,1.31-.83h.64V41h1.28v.54H9.89V41Z"/><path class="cls-4" d="M15.43,41V36.86a5.72,5.72,0,0,1-.56.39,3.93,3.93,0,0,1-.75.33V37a4.5,4.5,0,0,0,1.31-.83h.64V41h1.29v.54H14.12V41Z"/><path class="cls-4" d="M19.82,36a1.54,1.54,0,0,1,1.39.77,4.68,4.68,0,0,1,0,4.13,1.64,1.64,0,0,1-2.78,0,4.68,4.68,0,0,1,0-4.13A1.54,1.54,0,0,1,19.82,36Zm-1,4,1.84-2.9a1,1,0,0,0-.38-.43.91.91,0,0,0-.42-.11.93.93,0,0,0-.87.64,3.78,3.78,0,0,0-.3,1.62c0,.15,0,.31,0,.48A4.43,4.43,0,0,0,18.78,40Zm2.07-2.26L19,40.64a1.16,1.16,0,0,0,.34.38.8.8,0,0,0,.43.12,1,1,0,0,0,.93-.73A4.67,4.67,0,0,0,21,38.79,3.72,3.72,0,0,0,20.85,37.73Z"/><path class="cls-4" d="M24.05,36a1.54,1.54,0,0,1,1.39.77,4.68,4.68,0,0,1,0,4.13,1.64,1.64,0,0,1-2.78,0,4.68,4.68,0,0,1,0-4.13A1.56,1.56,0,0,1,24.05,36Zm-1,4,1.84-2.9a1,1,0,0,0-.38-.43.88.88,0,0,0-.42-.11.94.94,0,0,0-.87.64,3.78,3.78,0,0,0-.3,1.62c0,.15,0,.31,0,.48A4.43,4.43,0,0,0,23,40Zm2.07-2.26-1.83,2.91a1.16,1.16,0,0,0,.34.38.8.8,0,0,0,.43.12,1,1,0,0,0,.93-.73,4.67,4.67,0,0,0,.28-1.62A3.72,3.72,0,0,0,25.08,37.73Z"/><path class="cls-4" d="M28.28,36a1.53,1.53,0,0,1,1.39.77,4.68,4.68,0,0,1,0,4.13,1.53,1.53,0,0,1-1.39.77,1.56,1.56,0,0,1-1.39-.77,4.68,4.68,0,0,1,0-4.13A1.56,1.56,0,0,1,28.28,36Zm-1,4,1.84-2.9a1,1,0,0,0-.37-.43.91.91,0,0,0-1.3.53,3.78,3.78,0,0,0-.3,1.62c0,.15,0,.31,0,.48A4.43,4.43,0,0,0,27.24,40Zm2.08-2.26-1.84,2.91a1.28,1.28,0,0,0,.34.38.82.82,0,0,0,.43.12,1,1,0,0,0,.93-.73,4.45,4.45,0,0,0,.28-1.62A4.11,4.11,0,0,0,29.32,37.73Z"/><path class="cls-4" d="M32.36,41V36.86a5.81,5.81,0,0,1-.57.39,4.09,4.09,0,0,1-.74.33V37a4.5,4.5,0,0,0,1.31-.83H33V41h1.28v.54H31.05V41Z"/><path class="cls-4" d="M36.59,41V36.86c-.2.15-.38.28-.56.39a4.23,4.23,0,0,1-.75.33V37a4.5,4.5,0,0,0,1.31-.83h.64V41h1.28v.54H35.28V41Z"/><path class="cls-4" d="M40.82,41V36.86a5.72,5.72,0,0,1-.56.39,3.93,3.93,0,0,1-.75.33V37a4.5,4.5,0,0,0,1.31-.83h.64V41h1.28v.54H39.51V41Z"/></g></svg>
