<?xml version="1.0" encoding="utf-8"?>
<!-- Generator: Adobe Illustrator 16.0.0, SVG Export Plug-In . SVG Version: 6.00 Build 0)  -->
<!DOCTYPE svg PUBLIC "-//W3C//DTD SVG 1.1//EN" "http://www.w3.org/Graphics/SVG/1.1/DTD/svg11.dtd">
<svg version="1.1" id="Layer_1" xmlns="http://www.w3.org/2000/svg" xmlns:xlink="http://www.w3.org/1999/xlink" x="0px" y="0px"
	 width="48px" height="48px" viewBox="0 0 48 48" enable-background="new 0 0 48 48" xml:space="preserve">
<polygon fill="#FFFFFF" stroke="#FFFFFF" stroke-miterlimit="10" points="12,7.187 12,41 36.125,41 36.125,15 27.5,7.187 "/>
<g id="zXDtGm_1_">
</g>
<path fill="#707070" d="M28,5.757H13h-2v2v32v2h2h22h2v-2v-24v-2L28,5.757z M35,39.758H13v-32h12c2,0,3,4,2,8c0,0,8-3.123,8,1
	V39.758z"/>
<circle fill="#333333" cx="23.439" cy="23.292" r="4.611"/>
<circle fill="#333333" cx="28.536" cy="35.219" r="3.745"/>
<circle fill="#333333" cx="36.72" cy="28.562" r="3.744"/>
<circle fill="#333333" cx="12.281" cy="29.902" r="3.744"/>
<polyline fill="none" stroke="#333333" stroke-miterlimit="10" points="11.281,30.902 23.439,23.292 28.535,35.219 "/>
<line fill="none" stroke="#333333" stroke-miterlimit="10" x1="36.72" y1="28.562" x2="23.439" y2="23.292"/>
</svg>
