<?xml version="1.0" encoding="utf-8"?>
<!-- Generator: Adobe Illustrator 16.0.0, SVG Export Plug-In . SVG Version: 6.00 Build 0)  -->
<!DOCTYPE svg PUBLIC "-//W3C//DTD SVG 1.1//EN" "http://www.w3.org/Graphics/SVG/1.1/DTD/svg11.dtd">
<svg version="1.1" id="Layer_1" xmlns="http://www.w3.org/2000/svg" xmlns:xlink="http://www.w3.org/1999/xlink" x="0px" y="0px"
	 width="48px" height="48px" viewBox="0 0 48 48" enable-background="new 0 0 48 48" xml:space="preserve">
<rect x="6.102" y="6.69" fill="#FFFFFF" stroke="#FFFFFF" stroke-miterlimit="10" width="36.39" height="27.787"/>
<g id="zXDtGm_1_">
</g>
<line fill="none" stroke="#333333" stroke-width="3" stroke-miterlimit="10" x1="3.591" y1="6.69" x2="45" y2="6.69"/>
<line fill="none" stroke="#333333" stroke-width="3" stroke-miterlimit="10" x1="3.591" y1="34.477" x2="45" y2="34.477"/>
<line fill="none" stroke="#333333" stroke-width="1.5" stroke-miterlimit="10" x1="42.492" y1="6.69" x2="42.492" y2="34.477"/>
<line fill="none" stroke="#333333" stroke-width="1.5" stroke-miterlimit="10" x1="6.102" y1="6.69" x2="6.102" y2="34.477"/>
<line fill="none" stroke="#333333" stroke-width="2" stroke-miterlimit="10" x1="24.296" y1="34.477" x2="24.296" y2="48"/>
<line fill="none" stroke="#333333" stroke-width="2" stroke-miterlimit="10" x1="24.296" y1="2.672" x2="24.296" y2="6.69"/>
<path fill="#707070" d="M33.008,23.574c0.965-0.826,2.419-0.713,3.247,0.255c0.826,0.966,0.712,2.419-0.254,3.244
	c-0.967,0.828-2.42,0.714-3.247-0.249C31.927,25.854,32.04,24.401,33.008,23.574z"/>
<circle fill="#707070" cx="35.667" cy="18.943" r="2.302"/>
<circle fill="#707070" cx="24.715" cy="30.206" r="2.302"/>
<polyline fill="none" stroke="#707070" stroke-miterlimit="10" points="24.714,30.206 27.354,21.789 34.504,25.326 "/>
<line fill="none" stroke="#707070" stroke-miterlimit="10" x1="35.667" y1="18.943" x2="27.354" y2="21.789"/>
<circle fill="#707070" cx="30.754" cy="13.2" r="2.303"/>
<line fill="none" stroke="#707070" stroke-miterlimit="10" x1="27.205" y1="22.265" x2="30.755" y2="13.2"/>
<circle fill="#333333" cx="13.877" cy="16.158" r="2.303"/>
<circle fill="#333333" cx="12.922" cy="22.575" r="2.303"/>
<circle fill="#333333" cx="23.501" cy="10.96" r="2.303"/>
<polyline fill="none" stroke="#333333" stroke-miterlimit="10" points="23.501,10.96 21.138,19.458 13.877,16.159 "/>
<line fill="none" stroke="#333333" stroke-miterlimit="10" x1="12.922" y1="22.575" x2="21.138" y2="19.458"/>
<circle fill="#333333" cx="18.159" cy="28.037" r="2.303"/>
<line fill="none" stroke="#333333" stroke-miterlimit="10" x1="21.272" y1="18.979" x2="18.021" y2="28.155"/>
<line fill="none" stroke="#333333" stroke-miterlimit="10" x1="21.138" y1="19.458" x2="27.354" y2="21.789"/>
<line fill="none" stroke="#707070" stroke-miterlimit="10" x1="24.247" y1="20.624" x2="27.354" y2="21.789"/>
<circle fill="#707070" cx="27.354" cy="21.79" r="2.837"/>
<circle fill="#333333" cx="21.137" cy="19.458" r="2.836"/>
</svg>
