<?xml version="1.0" encoding="utf-8"?>
<!-- Generator: Adobe Illustrator 16.0.0, SVG Export Plug-In . SVG Version: 6.00 Build 0)  -->
<!DOCTYPE svg PUBLIC "-//W3C//DTD SVG 1.1//EN" "http://www.w3.org/Graphics/SVG/1.1/DTD/svg11.dtd">
<svg version="1.1" id="Layer_1" xmlns="http://www.w3.org/2000/svg" xmlns:xlink="http://www.w3.org/1999/xlink" x="0px" y="0px"
	 width="48px" height="48px" viewBox="0 0 48 48" enable-background="new 0 0 48 48" xml:space="preserve">
<g id="zXDtGm_1_">
</g>
<g>
	<ellipse fill="#666666" cx="25.346" cy="11.134" rx="5.847" ry="5.901"/>
	<ellipse fill="#666666" cx="18.883" cy="26.4" rx="4.75" ry="4.794"/>
	<path fill="#666666" d="M13.253,17.88c0,2.647-2.127,4.793-4.749,4.793c-2.619,0-4.746-2.146-4.746-4.793
		c0-2.647,2.127-4.792,4.746-4.792C11.126,13.088,13.253,15.233,13.253,17.88z"/>
	<ellipse fill="#666666" cx="39.495" cy="19.596" rx="4.747" ry="4.792"/>
	<polyline fill="none" stroke="#666666" stroke-miterlimit="10" points="18.884,26.4 25.346,11.134 40.764,20.875 	"/>
	<line fill="none" stroke="#666666" stroke-miterlimit="10" x1="25.346" y1="11.134" x2="8.504" y2="17.88"/>
</g>
<g>
	<path fill="#333333" d="M30.587,18.767h0.687l11.071,24H19.499L30.587,18.767z M22.913,40.701l13.612,0.021l-6.652-15.35
		L22.913,40.701z"/>
</g>
</svg>
