<?xml version="1.0" encoding="utf-8"?>
<!-- Generator: Adobe Illustrator 16.0.0, SVG Export Plug-In . SVG Version: 6.00 Build 0)  -->
<!DOCTYPE svg PUBLIC "-//W3C//DTD SVG 1.1//EN" "http://www.w3.org/Graphics/SVG/1.1/DTD/svg11.dtd">
<svg version="1.1" id="Layer_1" xmlns="http://www.w3.org/2000/svg" xmlns:xlink="http://www.w3.org/1999/xlink" x="0px" y="0px"
	 width="48px" height="48px" viewBox="0 0 48 48" enable-background="new 0 0 48 48" xml:space="preserve">
<g id="zXDtGm_1_">
</g>
<circle fill="#707070" cx="31.17" cy="41.899" r="3.745"/>
<circle fill="#707070" cx="39.354" cy="35.244" r="3.744"/>
<circle fill="#707070" cx="13.916" cy="37.584" r="3.744"/>
<polyline fill="none" stroke="#707070" stroke-miterlimit="10" points="13.916,37.584 26.074,29.975 31.17,41.9 "/>
<line fill="none" stroke="#707070" stroke-miterlimit="10" x1="39.354" y1="35.244" x2="26.074" y2="29.975"/>
<circle fill="#707070" cx="39.354" cy="22.955" r="3.744"/>
<line fill="none" stroke="#707070" stroke-miterlimit="10" x1="25.387" y1="30.404" x2="39.354" y2="22.954"/>
<circle fill="#333333" cx="15.373" cy="8.771" r="3.745"/>
<circle fill="#333333" cx="7.411" cy="15.691" r="3.744"/>
<circle fill="#333333" cx="32.759" cy="12.519" r="3.744"/>
<polyline fill="none" stroke="#333333" stroke-miterlimit="10" points="32.758,12.519 20.855,20.523 15.372,8.771 "/>
<line fill="none" stroke="#333333" stroke-miterlimit="10" x1="7.411" y1="15.691" x2="20.855" y2="20.523"/>
<circle fill="#333333" cx="8.108" cy="27.974" r="3.744"/>
<line fill="none" stroke="#333333" stroke-miterlimit="10" x1="21.529" y1="20.071" x2="7.814" y2="27.975"/>
<line fill="none" stroke="#333333" stroke-miterlimit="10" x1="20.855" y1="20.523" x2="26.074" y2="29.975"/>
<line fill="none" stroke="#707070" stroke-miterlimit="10" x1="23.465" y1="25.249" x2="26.074" y2="29.975"/>
<circle fill="#707070" cx="26.074" cy="29.975" r="4.611"/>
<circle fill="#333333" cx="20.856" cy="20.523" r="4.611"/>
</svg>
