<?xml version="1.0" encoding="utf-8"?>
<!-- Generator: Adobe Illustrator 16.0.0, SVG Export Plug-In . SVG Version: 6.00 Build 0)  -->
<!DOCTYPE svg PUBLIC "-//W3C//DTD SVG 1.1//EN" "http://www.w3.org/Graphics/SVG/1.1/DTD/svg11.dtd">
<svg version="1.1" id="Layer_1" xmlns="http://www.w3.org/2000/svg" xmlns:xlink="http://www.w3.org/1999/xlink" x="0px" y="0px"
	 width="48px" height="48px" viewBox="0 0 48 48" enable-background="new 0 0 48 48" xml:space="preserve">
<g id="zXDtGm_1_">
</g>
<circle fill="#333333" cx="32.336" cy="40.563" r="3.745"/>
<circle fill="#333333" cx="40.52" cy="33.908" r="3.744"/>
<circle fill="#333333" cx="15.082" cy="36.248" r="3.744"/>
<polyline fill="none" stroke="#333333" stroke-miterlimit="10" points="15.082,36.248 27.24,28.639 32.336,40.564 "/>
<line fill="none" stroke="#333333" stroke-miterlimit="10" x1="40.52" y1="33.908" x2="27.24" y2="28.639"/>
<circle fill="#333333" cx="40.52" cy="21.619" r="3.744"/>
<line fill="none" stroke="#333333" stroke-miterlimit="10" x1="26.553" y1="29.068" x2="40.52" y2="21.618"/>
<circle fill="#333333" cx="16.539" cy="7.436" r="3.745"/>
<circle fill="#333333" cx="8.577" cy="14.355" r="3.744"/>
<circle fill="#333333" cx="33.925" cy="11.183" r="3.744"/>
<polyline fill="none" stroke="#333333" stroke-miterlimit="10" points="33.924,11.183 22.021,19.188 16.538,7.435 "/>
<line fill="none" stroke="#333333" stroke-miterlimit="10" x1="8.577" y1="14.355" x2="22.021" y2="19.188"/>
<circle fill="#333333" cx="9.274" cy="26.638" r="3.744"/>
<line fill="none" stroke="#333333" stroke-miterlimit="10" x1="22.695" y1="18.735" x2="8.98" y2="26.639"/>
<line fill="#333333" x1="22.021" y1="19.188" x2="27.24" y2="28.639"/>
<line fill="none" stroke="#333333" stroke-miterlimit="10" x1="22.716" y1="20.407" x2="27.22" y2="28.639"/>
<circle fill="#333333" cx="27.24" cy="28.639" r="4.611"/>
<circle fill="#333333" cx="22.022" cy="19.187" r="4.611"/>
</svg>
