<?xml version="1.0" encoding="UTF-8" standalone="no"?>
<!-- Generator: Adobe Illustrator 16.1.0, SVG Export Plug-In . SVG Version: 6.00 Build 0)  -->

<svg
   xmlns:dc="http://purl.org/dc/elements/1.1/"
   xmlns:cc="http://creativecommons.org/ns#"
   xmlns:rdf="http://www.w3.org/1999/02/22-rdf-syntax-ns#"
   xmlns:svg="http://www.w3.org/2000/svg"
   xmlns="http://www.w3.org/2000/svg"
   xmlns:sodipodi="http://sodipodi.sourceforge.net/DTD/sodipodi-0.dtd"
   xmlns:inkscape="http://www.inkscape.org/namespaces/inkscape"
   version="1.1"
   id="Layer_1"
   x="0px"
   y="0px"
   width="48px"
   height="48px"
   viewBox="0 0 48 48"
   enable-background="new 0 0 48 48"
   xml:space="preserve"
   inkscape:version="0.91 r13725"
   sodipodi:docname="NetworkGenerator.svg"><metadata
     id="metadata4169"><rdf:RDF><cc:Work
         rdf:about=""><dc:format>image/svg+xml</dc:format><dc:type
           rdf:resource="http://purl.org/dc/dcmitype/StillImage" /><dc:title></dc:title></cc:Work></rdf:RDF></metadata><defs
     id="defs4167" /><sodipodi:namedview
     pagecolor="#ffffff"
     bordercolor="#666666"
     borderopacity="1"
     objecttolerance="10"
     gridtolerance="10"
     guidetolerance="10"
     inkscape:pageopacity="0"
     inkscape:pageshadow="2"
     inkscape:window-width="1278"
     inkscape:window-height="762"
     id="namedview4165"
     showgrid="false"
     inkscape:zoom="5.8645833"
     inkscape:cx="33.525962"
     inkscape:cy="20.439519"
     inkscape:window-x="0"
     inkscape:window-y="18"
     inkscape:window-maximized="0"
     inkscape:current-layer="Layer_1" /><path
     d="m 30.284,28.592 2.942,-1.009 c 0.291,0.61 0.837,1.093 1.546,1.26 1.244,0.297 2.494,-0.473 2.791,-1.715 0.297,-1.247 -0.473,-2.496 -1.717,-2.795 -1.246,-0.296 -2.496,0.474 -2.793,1.719 -0.044,0.186 -0.058,0.371 -0.057,0.554 l -2.929,1.004 c -0.287,-0.625 -0.84,-1.12 -1.56,-1.293 -0.625,-0.148 -1.251,-0.029 -1.757,0.285 l -3.335,-2.383 c 0.067,-0.143 0.122,-0.294 0.16,-0.453 0.297,-1.246 -0.472,-2.496 -1.717,-2.793 -0.214,-0.051 -0.427,-0.061 -0.636,-0.051 L 20.81,19.108 c 0.59,-0.297 1.055,-0.833 1.22,-1.524 0.18,-0.758 -0.037,-1.514 -0.513,-2.059 l 1.184,-1.773 c 0.127,0.057 0.26,0.106 0.401,0.14 1.246,0.297 2.494,-0.474 2.791,-1.716 C 26.19,10.93 25.421,9.68 24.176,9.382 22.93,9.087 21.68,9.856 21.384,11.101 c -0.18,0.756 0.037,1.511 0.511,2.056 l -1.183,1.774 c -0.127,-0.057 -0.26,-0.106 -0.399,-0.14 -0.3,-0.071 -0.599,-0.077 -0.885,-0.034 l -0.854,-3.416 c 0.551,-0.305 0.98,-0.824 1.138,-1.483 0.297,-1.247 -0.473,-2.496 -1.717,-2.793 -1.246,-0.297 -2.497,0.473 -2.793,1.718 -0.297,1.245 0.473,2.495 1.719,2.791 0.233,0.056 0.466,0.062 0.692,0.047 l 0.877,3.505 c -0.193,0.13 -0.365,0.288 -0.514,0.471 l -2.905,-1.09 c 10e-4,-0.004 0.003,-0.008 0.004,-0.012 0.297,-1.247 -0.471,-2.496 -1.717,-2.794 -1.246,-0.297 -2.496,0.475 -2.793,1.719 -0.297,1.244 0.473,2.496 1.719,2.79 0.898,0.214 1.793,-0.132 2.337,-0.805 l 2.904,1.09 c -10e-4,0.005 -0.004,0.01 -0.005,0.016 -0.297,1.244 0.473,2.495 1.719,2.792 0.202,0.048 0.403,0.059 0.601,0.053 l 0.416,1.826 c -0.482,0.251 -0.869,0.664 -1.079,1.192 L 15.9,21.063 c 0.073,-1.108 -0.651,-2.141 -1.768,-2.407 -1.246,-0.297 -2.497,0.473 -2.793,1.719 -0.297,1.243 0.473,2.494 1.719,2.79 1.035,0.247 2.066,-0.251 2.557,-1.139 l 3.405,1.361 c 0.039,0.577 0.292,1.111 0.702,1.506 l -1.06,1.059 c -0.203,-0.124 -0.422,-0.229 -0.667,-0.287 -1.246,-0.297 -2.497,0.473 -2.793,1.72 -0.024,0.1 -0.03,0.199 -0.04,0.298 l -3.231,0.53 c -0.252,-0.72 -0.85,-1.301 -1.646,-1.492 -0.896,-0.215 -1.79,0.13 -2.334,0.802 l -1.953,-0.368 0,1.018 1.492,0.281 c -0.288,1.238 0.479,2.482 1.721,2.776 1.244,0.297 2.494,-0.473 2.791,-1.716 0.024,-0.103 0.03,-0.204 0.041,-0.306 l 3.229,-0.53 c 0.158,0.456 0.455,0.854 0.855,1.136 l -1.519,2.593 c -1.216,-0.244 -2.419,0.513 -2.707,1.729 -0.155,0.647 -0.017,1.295 0.324,1.811 l -1.411,1.607 C 10.61,37.429 10.39,37.325 10.145,37.267 8.9,36.97 7.649,37.74 7.354,38.985 c -0.299,1.245 0.471,2.495 1.717,2.792 1.246,0.296 2.496,-0.475 2.791,-1.718 0.155,-0.649 0.015,-1.297 -0.325,-1.813 l 1.41,-1.605 c 0.205,0.125 0.426,0.229 0.671,0.288 0.193,0.046 0.386,0.058 0.575,0.055 l 0.387,3.444 c -0.668,0.263 -1.201,0.831 -1.393,1.575 l 4.473,0 C 17.451,41.2 16.828,40.533 15.965,40.327 15.832,40.296 15.701,40.282 15.569,40.274 l -0.396,-3.53 c 0.21,-0.104 0.407,-0.231 0.577,-0.393 l 2.738,1.468 c -0.039,0.1 -0.08,0.197 -0.105,0.305 -0.297,1.243 0.474,2.495 1.718,2.792 1.246,0.295 2.495,-0.474 2.791,-1.717 0.298,-1.247 -0.471,-2.497 -1.717,-2.795 -0.79,-0.188 -1.581,0.057 -2.132,0.578 l -2.738,-1.469 c 0.038,-0.099 0.079,-0.195 0.104,-0.302 0.222,-0.933 -0.153,-1.866 -0.877,-2.402 l 1.532,-2.615 c 1.195,0.207 2.361,-0.54 2.647,-1.736 0.155,-0.65 0.015,-1.297 -0.327,-1.812 l 1.223,-1.223 c 0.06,0.02 0.115,0.047 0.177,0.062 0.735,0.176 1.469,-0.028 2.01,-0.477 l 3.237,2.312 c -0.141,0.217 -0.254,0.454 -0.317,0.72 -0.297,1.242 0.473,2.493 1.719,2.79 0.043,0.01 0.085,0.01 0.128,0.018 l 0.223,2.188 C 27,33.254 26.352,33.871 26.15,34.72 c -0.225,0.936 0.156,1.875 0.889,2.409 l -0.674,3.203 C 25.394,40.377 24.532,41.027 24.254,42 l 4.437,0 c -0.192,-0.666 -0.673,-1.225 -1.339,-1.498 l 0.626,-2.977 c 0.493,0.093 0.979,0.021 1.405,-0.18 l 1.439,1.516 c -0.211,0.261 -0.373,0.566 -0.456,0.915 -0.201,0.838 0.091,1.674 0.679,2.224 l 3.161,0 c 0.319,-0.299 0.559,-0.69 0.668,-1.147 0.297,-1.248 -0.472,-2.497 -1.717,-2.795 -0.542,-0.13 -1.081,-0.047 -1.547,0.181 l -1.431,-1.506 c 0.222,-0.266 0.394,-0.579 0.479,-0.938 0.297,-1.247 -0.473,-2.496 -1.717,-2.794 -0.053,-0.013 -0.104,-0.013 -0.157,-0.021 l -0.221,-2.179 c 0.415,-0.111 0.789,-0.333 1.084,-0.645 l 2.84,2.1 c -0.043,0.105 -0.086,0.21 -0.112,0.323 -0.299,1.243 0.471,2.494 1.717,2.789 1.245,0.298 2.494,-0.472 2.791,-1.714 0.297,-1.247 -0.472,-2.497 -1.717,-2.795 -0.786,-0.188 -1.572,0.052 -2.12,0.565 L 30.161,29.29 c 0.02,-0.061 0.047,-0.118 0.062,-0.182 0.043,-0.171 0.059,-0.344 0.061,-0.516 z"
     id="path4163"
     inkscape:connector-curvature="0"
     style="fill:#666" /><path
     style="fill:#333"
     d="m 27.197949,18.594704 0,-3.461298 0.908172,-0.906653 c 0.499495,-0.498666 0.942442,-0.906661 0.984327,-0.906661 l 0.07616,0 0,0.861288 c 0,0.473711 0.02114,0.861288 0.04696,0.861288 0.02583,0 0.433801,-0.387577 0.906602,-0.861288 0.472801,-0.473711 0.894615,-0.861288 0.937363,-0.861288 l 0.07773,0 0,0.861288 c 0,0.473711 0.02114,0.861288 0.04696,0.861288 0.02583,0 0.433802,-0.387577 0.906603,-0.861288 0.472802,-0.473711 0.894614,-0.861288 0.937363,-0.861288 l 0.07773,0 0,0.861288 c 0,0.473711 0.02114,0.861288 0.04696,0.861288 0.02583,0 0.433802,-0.387577 0.906603,-0.861288 0.4728,-0.473711 0.894614,-0.861288 0.937363,-0.861288 l 0.07773,0 0,0.861288 c 0,0.473711 0.02114,0.861288 0.04696,0.861288 0.02583,0 0.433802,-0.387577 0.906603,-0.861288 0.472801,-0.473711 0.893874,-0.861288 0.935719,-0.861288 l 0.07608,0 0.01702,0.90743 0.01702,0.907422 0.424545,0.01842 c 0.569615,0.02467 0.482521,0.394167 0.992074,-4.208615 0.250556,-2.263279 0.472041,-4.2327097 0.492186,-4.3765168 l 0.03663,-0.2614599 0.976788,0 0.976788,0 0.03663,0.2614599 c 0.02015,0.1438071 0.241096,2.1084388 0.491,4.3658468 0.249903,2.257407 0.472066,4.133016 0.493695,4.168015 l 0.03932,0.06361 0.457773,0 0.457773,0 0,3.445146 0,3.445145 -7.874622,0 -7.874621,0 0,-3.461298 z m 2.922223,0.01614 0,-0.461402 -0.953567,0 -0.953568,0 -0.01854,0.393397 c -0.0102,0.216374 -0.0039,0.43165 0.01407,0.4784 l 0.03262,0.08499 0.9395,-0.01698 0.939501,-0.01698 0,-0.461403 z m 2.952982,0 0,-0.461402 -0.953567,0 -0.953567,0 -0.01855,0.393397 c -0.0102,0.216374 -0.0039,0.43165 0.01407,0.4784 l 0.03262,0.08499 0.939501,-0.01698 0.939501,-0.01698 0,-0.461403 z m 2.952984,0 0,-0.461402 -0.953568,0 -0.953567,0 -0.01854,0.393397 c -0.0102,0.216374 -0.0039,0.43165 0.01407,0.4784 l 0.03262,0.08499 0.9395,-0.01698 0.939501,-0.01698 0,-0.461403 z m -5.905966,-1.968653 0,-0.461403 -0.953567,0 -0.953568,0 -0.01854,0.393398 c -0.0102,0.216374 -0.0039,0.43165 0.01407,0.478391 l 0.03262,0.08499 0.9395,-0.01698 0.939501,-0.01698 0,-0.461403 z m 2.952982,0 0,-0.461403 -0.953567,0 -0.953567,0 -0.01855,0.393398 c -0.0102,0.216374 -0.0039,0.43165 0.01407,0.478391 l 0.03262,0.08499 0.939501,-0.01698 0.939501,-0.01698 0,-0.461403 z m 2.952984,0 0,-0.461403 -0.953568,0 -0.953567,0 -0.01854,0.393398 c -0.0102,0.216374 -0.0039,0.43165 0.01407,0.478391 l 0.03262,0.08499 0.9395,-0.01698 0.939501,-0.01698 0,-0.461403 z"
     id="path4279"
     inkscape:connector-curvature="0" /></svg>