<?xml version="1.0" encoding="utf-8"?>
<!-- Generator: Adobe Illustrator 16.0.0, SVG Export Plug-In . SVG Version: 6.00 Build 0)  -->
<!DOCTYPE svg PUBLIC "-//W3C//DTD SVG 1.1//EN" "http://www.w3.org/Graphics/SVG/1.1/DTD/svg11.dtd">
<svg version="1.1" id="Layer_1" xmlns="http://www.w3.org/2000/svg" xmlns:xlink="http://www.w3.org/1999/xlink" x="0px" y="0px"
	 width="48px" height="48px" viewBox="0 0 48 48" enable-background="new 0 0 48 48" xml:space="preserve">
<g id="zXDtGm_1_">
</g>
<circle fill="#333333" cx="41.41" cy="35.783" r="3.744"/>
<circle fill="#333333" cx="12.724" cy="7.16" r="3.744"/>
<line fill="none" stroke="#333333" stroke-miterlimit="10" x1="12.724" y1="7.16" x2="25.61" y2="16.11"/>
<circle fill="#333333" cx="5.53" cy="22.084" r="3.744"/>
<line fill="none" stroke="#333333" stroke-miterlimit="10" x1="25.61" y1="15.852" x2="5.236" y2="22.084"/>
<path fill="none" d="M27.24,28.639"/>
<path fill="none" d="M26.152,15.852"/>
<rect x="21.04" y="11.281" fill="#333333" width="9.141" height="9.142"/>
<rect x="21.04" y="27.934" fill="#333333" width="9.142" height="9.141"/>
<line fill="none" stroke="#333333" stroke-miterlimit="10" x1="25.61" y1="32.504" x2="5.236" y2="22.084"/>
<circle fill="#333333" cx="38.888" cy="9.43" r="3.744"/>
<line fill="none" stroke="#333333" stroke-miterlimit="10" x1="25.61" y1="16.11" x2="38.888" y2="9.429"/>
<circle fill="#333333" cx="8.437" cy="39.527" r="3.744"/>
<line fill="none" stroke="#333333" stroke-miterlimit="10" x1="25.61" y1="15.852" x2="8.143" y2="39.528"/>
<line fill="none" stroke="#333333" stroke-miterlimit="10" x1="25.61" y1="32.504" x2="8.143" y2="39.528"/>
<line fill="none" stroke="#333333" stroke-miterlimit="10" x1="41.28" y1="35.694" x2="25.611" y2="32.504"/>
<line fill="none" stroke="#333333" stroke-miterlimit="10" x1="41.28" y1="35.694" x2="25.61" y2="15.852"/>
</svg>
